<?xml version="1.0" encoding="UTF-8"?>
<svg id="Layer_2" data-name="Layer 2" xmlns="http://www.w3.org/2000/svg" viewBox="0 0 172.37 99.1">
  <defs>
    <style>
      .cls-1 {
        fill: #676e8c;
        stroke-width: 0px;
      }
    </style>
  </defs>
  <g id="Layer_1-2" data-name="Layer 1">
    <g>
      <path class="cls-1" d="M172.31,54.84c-.12-.89-.4-1.16-1.15-1.29-.21-.04-.13-.17-.15-.27-.13-.59-.19-1.19-.53-1.71-.18-.27-.35-.52-.73-.5-.37.02-.46.3-.57.58-.3.7-.39,1.45-.34,2.2.11,1.44-.4,2.57-1.45,3.54-.41.38-.61.35-.91-.07-.23-.32-.51-.6-.78-.89-.35-.37-.51-.75-.09-1.17.2-.2.34-.46.37-.72.07-.68.39-1.21.78-1.75.46-.63.83-1.37.37-2.14-.35-.58-.85-1.07-1.4-1.49-1.18-.9-2.54-1.28-3.97-1.52-.4-.07-.82-.05-1.21-.24-1-.47-1.44-1.36-1.77-2.31-.36-1.02-.66-2.06-.98-3.08-.26-.83-.8-1.38-1.63-1.65-.81-.27-1.64-.32-2.47-.28-1.74.1-3,1-3.94,2.41-.18.28-.44.53-.69.17-.31-.44-.61-.31-.96-.15-.44.21-.91.38-1.3.65-.54.38-1.06.41-1.67.26-1.53-.38-3.06.67-3.27,2.24-.02.13-.04.25-.15.33-.97.69-1.73,1.6-2.57,2.43-.96.95-1.85,1.98-1.98,3.42-.05.56-.3.98-.64,1.43-.46.61-.63,1.41-.43,2.16.23.84.07,1.62,0,2.44-.16-.06-.16-.17-.16-.27-.08-1.75-.18-3.5-.24-5.25-.06-1.68-.08-3.37-.15-5.05-.12-2.99-.26-5.98-.4-8.96-.09-2.07-.23-4.14-.28-6.21-.03-1.31-.15-2.62.11-3.93.02-.12-.03-.27-.07-.4-.36-1.03-.07-1.5,1.02-1.64.15-.02.35.02.4-.12.22-.54.83-.74,1.09-1.21.29-.51,1.33-.76.63-1.65-.02-.03.04-.11.06-.17.12-.48-.14-.66-.56-.66-1.06,0-2.12-.02-3.18-.05-.82-.02-1.1-.18-1.13-.98-.04-.86-.03-1.71-.19-2.56-.06-.31.02-.62.34-.82.31-.19.38-.51.43-.85.13-.91-.33-1.45-1.08-1.85-.44-.24-.6-.55-.24-1.01.16-.2.22-.43.09-.7-.23-.45-.85-.71-1.27-.49-.28.14-.43.87-.2,1.26.29.5.26.78-.33,1.03-1.2.52-1.4,2.04-.38,2.87.37.3.49.65.49,1.08.01.46,0,.92,0,1.39,0,.84-.49,1.41-1.36,1.44-1.26.04-2.53.08-3.78,0-2.69-.19-5.38-.2-8.07-.34-1.41-.07-2.82-.03-4.23-.04-.42,0-.95-.54-.78-.82.41-.67.38-1.42.46-2.15.03-.28.08-.58.34-.78,1.06-.85,1.12-2.07.04-2.86-1-.73-1.04-1.65-.8-2.7.09-.41-.11-.68-.42-.89-.3-.19-.59-.19-.86.07-.26.26-.35.53-.15.89.43.75.02,2.25-.72,2.73-1.31.84-1.32,1.87-.04,2.69.27.18.44.36.39.76-.09.67-.05,1.34.29,1.98.23.42-.2,1.09-.69,1.1-1.48.03-2.93.05-4.35-.6-3.74-1.71-7.54-3.31-11.31-4.96-1.71-.75-3.4-1.57-5.14-2.26-1.17-.46-2.34-.83-2.85-2.14-.11-.28-.46-.32-.62-.6-.33-.54-.37-1.19-.38-1.72-.05-2.18-.34-4.36-.12-6.55.03-.3.11-.37.42-.35.43.02.86.1,1.26.12.41.02.48-.58.33-.97-.12-.32-.25-.69-.76-.34-.41.28-.92.05-1.33-.08-.37-.11-.01-.47-.05-.71-.03-.21-.1-.44-.32-.5-.29-.08-.57-.06-.81.19-.19.2-.23.4-.14.62.29.69.3.69-.51.67-.21,0-.39-.05-.59-.16-.29-.18-.59-.12-.7.25-.11.4-.22.83.19,1.14.05.04.2.03.23,0,.38-.48.86-.13,1.29-.14.27,0,.4.18.4.49.02,1.36.07,2.72.11,4.08.01.46,0,.91.08,1.37.08.46.15.96-.35,1.34-.35.27-.29.69-.05,1.03.19.26.18.46-.07.62-.63.41-.95,1.04-1.23,1.7-.09.2-.2.31-.38.38-1.35.54-2.7,1.07-4.05,1.63-2.48,1.02-4.94,2.07-7.42,3.07-2.62,1.06-5.26,2.08-7.81,3.31-.93.45-1.9.38-2.86.46-.63.05-1.26-.64-.99-1.02.26-.36.23-.73.27-1.12.04-.47-.13-.97.11-1.42-.37.03-.34.32-.34.56,0,.75-.02,1.48-.44,2.16-.21.34.26.52.38.84-.7,0-1.36.24-2.04,0,.23-.51,1.08-.69.77-1.46.29-.12.61.14.88-.18-.35-.23-.8.04-1.09-.32.23-.02.45-.04.88-.08-.62-.25-1.01-.36-1.04-1.05-.04-.76.49-.66.87-.85-.21-.28-.48-.19-.68-.18-.58.05-.82-.31-1.02-.74-.23-.49-.18-.96.19-1.33.38-.38.94-.23,1.41-.34.21-.05.46.11.63-.17-.32-.12-.62-.23-1.03-.22.24-.17.52-.04.64-.28-.25-.22-.31-1.45-.08-1.74.03-.04.11-.08.16-.08.14.02.13.15.12.25-.04.45.15.86.19,1.29.07.68.43,1.09.95,1.45.64.45.69,1.23.15,1.78-.11.11-.25.26-.43.19-.22-.08-.42-.05-.45.16-.03.25.2.32.43.32.19-.16.4-.3.58-.47.84-.82.78-1.62-.18-2.29-.76-.53-1.12-1.97-.73-2.84.14-.31.24-.62-.07-.9-.3-.27-.63-.32-.97-.08-.35.25-.35.56-.2.93.35.89-.03,1.77-.79,2.29-1.23.84-1.4,1.92-.25,2.98.23.21.24.4.26.64.07.71-.23,1.48.32,2.12.03.04.02.12,0,.18-.07.27-1.07,1.07-1.37,1.1-1.07.13-2.13.03-3.2.05-.32,0-.45.07-.62.41-.31.66.12,1.07.3,1.58.73,2.12,1.4,4.25,2.29,6.31.53,1.24.99,2.47.9,3.91-.14,2.33.04,4.67-.07,7.01-.16,3.36.02,6.73-.19,10.1-.09,1.4-.01,2.8-.01,4.23-1.41-.61-2.14-1.14-2.78-2.03.31-.01.56.15.75.3.49.38.63.13.78-.31.26-.8-.13-1.43-.54-2.02-.27-.39-.63-.75-.73-1.21-.13-.56.32-.85.71-1.15.09-.07.16-.23.09-.34-.08-.12-.23-.08-.34-.02-.21.1-.41.23-.67.37.06-.48.26-.86.1-1.29-.14-.37-.39-.63-.75-.67-.32-.03-.49.28-.61.55-.17.38-.27.78-.32,1.2-.1.76.04,1.55-.35,2.38-.19-.88-.44-1.65-.55-2.45-.04-.29.02-.71-.35-.79-.33-.07-.46.29-.6.53-.46.74-.56,1.54-.28,2.4-.31-.12-.54-.19-.79-.03-.48.32-.44.84-.5,1.39-.23-.16-.39-.3-.56-.4-.78-.48-1.48-.43-1.8.41-.1.25-.29.29-.48.34-.36.09-.73.18-1.1.22-1.11.12-2.24.19-3.27.67-2.68,1.25-5.42,2.31-8.28,3.1-.87.24-1.69.29-2.55-.04-.66-.26-1.11-.81-1.7-1.14-1.47-.81-3.1-1.17-4.7-1.61-.86-.24-1.68-.21-2.44.3-.32.21-.67.35-1.03.44-1.56.42-3.12.85-4.68,1.28-.36.1-.74.25-.96.56-.34.49-.79.78-1.34.95-.33.1-.47.32-.37.61.38,1-.23,1.5-.93,2-1.67,1.17-3.01,2.57-3.28,4.71-.01.1-.04.26-.1.28-.67.19-1.14.94-1.99.64-.33-.12-.73-.09-1.1-.04-.59.09-.88.36-.78.76.08.31.73.62,1.11.47.4-.16.84-.28,1.18-.57.13-.11.37-.16.39-.07.13.65.72.37,1.07.55.32.16.82.32,1.07.06.23-.24-.1-.64-.23-.95-.19-.44-.09-.66.37-.89,1.01-.49,1.97-1.05,2.86-1.75.93-.73,1.89-1.42,2.83-2.13,1.36-1.02,2.76-1.98,4.07-3.06,1.58-1.29,3.36-2.2,5.22-2.97.24-.1.47-.19.72-.05.86.5,1.73,1,2.52,1.62.36.28.71.59.9,1.03.08.2.2.4.05.59-.16.21-.35,0-.51-.05-.67-.21-1.33-.35-2.01-.09-.35.13-.58.39-.46.77.15.48-.11.53-.47.61-.81.19-1.59.48-2.24,1.03-.23.19-.43.4-.34.75.24.92,1.77,1.7,2.79,1.34-.18-.02-.28-.03-.37-.04-.73-.07-1.37-.33-1.85-.92-.3-.36-.39-.66.07-.98.69-.48,1.46-.76,2.27-.95.41-.1.63-.25.48-.73-.13-.4.06-.65.49-.67.58-.03,1.16-.1,1.71.22.16.09.41.28.63.05.22-.22.2-.48.13-.76-.11-.39-.28-.76-.58-1.02-.59-.51-1.21-1-1.89-1.4-.37-.22-.84-.29-1.24-.77,1.3.34,2.42.72,3.38,1.47,1.12.88,2.32,1.37,3.76.83.43-.16.87-.26,1.31-.38,1.64-.47,3.29-.91,4.81-1.71,2.13-1.12,4.4-1.73,6.8-1.9.2-.01.27-.03.32.21.17.85.41,1.03,1.19.83.75-.19,1.46-.54,2.27-.43.57.08.79-.48,1.22-.66.19-.08.39-.28.57-.1.13.13.12.37.11.58,0,.2-.28.53.01.59.3.06.27-.32.33-.55.01-.04.08-.07.12-.11.5.59.5.59.83.47,0,0,0,.01-.02.02.16.05.32-.2.48.06.57.92,1.54,1.36,2.39,1.95.3.21.54.45.53.92-.05,2.45-.04,4.9-.07,7.34-.05,3.93-.11,7.86-.16,11.79,0,.41-.13.71-.37,1.02-.28.35-.71.63-.71,1.12,0,1.38-.16,2.75-.24,4.13-.06.97-.02.97-.96.98-.67,0-1.08.38-1.1,1.07,0,.37-.15.42-.48.46-.85.12-1.71.03-2.55.13-1.18.14-2.37.09-3.56.21-.17.02-.42.07-.45-.21-.04-.42-.2-.91-.05-1.27.31-.74-.15-.71-.59-.76-.21-.02-.42,0-.64,0,1.18-1.79,1.23-2.66.15-3.66-.77-.7-2.21-.86-3.26-.16-.34.22-.65.54-.77.96-.28.94-.15,1.8.73,2.62-.43,0-.65-.01-.88,0-.39.03-.82.19-.84.58-.04.79-.52.71-1.03.66-.19-.02-.37-.08-.55-.09-2.32-.07-4.64-.15-6.96-.19-2.09-.03-4.17-.14-6.25-.23-2.89-.13-5.78-.18-8.67-.25-.37-.01-.74-.04-1.11-.09-1-.13-2.04.14-3-.27.58-.95.17-2.47-.89-2.87-.43-.16-.74-.38-1.03-.68-.39-.42-.92-.52-1.43-.5-1.58.03-1.83.27-1.98,1.83-.02.24-.1.3-.27.27-.64-.11-1.27-.4-1.84-.63-.59-.24-.99-.36-1.51-.06-.2.11-.41.08-.61.09-.74.05-1.43.21-2.02.69.02,0,.03,0,.05,0,.5-.06.95-.29,1.46-.31.05,0,.11,0,.15,0,.6-.04,1.22.01,1.8-.22-.74.35-.86.59-.49,1.31.21.41.13.62-.31.72-.16.04-.32.06-.48.08-.05.09-.11.17-.19.24,0,.07.01.14.02.17,0,0,0,0,0,.01.12-.01.26-.02.43-.03.7-.03,1.41.06,2.11-.11.24-.06.4.1.55.29.5.63.75.67,1.49.3.19-.1.38-.14.6-.06.35.12.67.1.99-.18.38-.33.77-.03,1.24.1-1.17-.62-.67-1.52-.51-2.35.14.02.29.02.2.25-.25.66.24.98.65,1.31.27.22.48-.02.62-.22.32-.47.54-.39.79.06.54.98.84,2,.69,3.12-.02.16.02.32.04.53-1.72-.02-3.44-.11-5.16-.24-1.14-.09-2.28-.12-3.42-.18-.6-.03-1.2-.07-1.8-.09-.09,0-.15-.01-.2-.04-.12,0-.24.02-.36.06-.13.05-.25.12-.37.21-.03.11-.06.21-.09.32.21-.03.42-.04.64-.03.09-.03.2-.04.3-.03,1.05.04,2.1.05,3.15.16.62.07,1.25.15,1.84.1.57-.05.58.17.55.57-.01.19,0,.38,0,.57,0,1.08,0,1.11-1.11,1.07-1.51-.06-3.03-.1-4.53-.35,0,0-.01,0-.02.01-.04.03-.09.06-.13.09,0,0-.01.02-.02.03,0,.03,0,.06,0,.07,0,.02.01.14,0,.09,0,.03,0,.05.01.07.13,0,.26,0,.38.04.05.02.09.04.14.06.05-.02.13-.01.24.04.26.11.54.04.81.06.3.03.52.15.49.36-.09.81-.21,1.47-.54,2.05-.17.3-.45.28-.74.22-.02.01-.04.02-.07.03-.16.05-.38.12-.45.23-.03.05-.04.09-.04.13-.02.09-.02.18-.03.28,0,.02,0,.06,0,.09,0,0,.02,0,.03.01.04.02.08.03.12.05,0,0,0,0,0,0,.26-.09.52-.09.79-.08.24-.06.52-.03.85.1.13.05.28.09.41.15,1.06.49,1.3.99,1.07,2.12-.04.18-.1.24-.28.25-.56.05-.93.4-1.09.9-.08.24-.21.37-.36.45,0,0,0,0,0,.01,0,.01,0,.03-.01.04.27,0,.54.01.81.03.05-.26.38-.4.12-.72-.09-.11.23-.33.42-.35.23-.03.14.21.15.33.01.45-.08.68-.35.76.07,0,.14,0,.2.01.3.02.6.05.9.09-.05-.17-.02-.41.07-.73.08-.3.14-.27.38-.18.24.1.53.08.79.15.25.06.71-.2.68.34-.01.23-.06.46-.18.61.07,0,.15.01.22.01.15,0,.31.01.46.01,0-.05.03-.11.08-.18.38-.56.72-1.15,1.1-1.77.22.36.34.69.33,1.09-.01.4-.11.7-.28.89.31.01.63.03.94.07,0-.02-.01-.04-.02-.07-.02-.36.62-1.1.95-1.12.33-.02.36.24.38.46.03.27-.33.65-.67.82.49.07,1,.2,1.25.61,0,.01.02.03.02.04,0,0,0,0,0,0,0,0,.02,0,.03-.01-.13-1.68.2-6.65.58-7.1-.03.46-.16.79-.07,1.15.1.42.29.73.7.88.12.05.25.07.21.24-.03.12-.06.23-.23.25-.52.06-.63.4-.67.88-.09,1.21-.22,2.41-.35,3.63.08-.03.16-.05.25-.06,0-.06.02-.13.04-.2.32-1.15.29-2.32.4-3.48.02-.16-.04-.4.3-.44.31-.04.28.13.39.3.29.46.54.79.28,1.45-.28.7-.09,1.55.11,2.29-.12-.6-.01-1.19-.02-1.77,0-1.04.79-1.16,1.53-.88.81.31,1.11,1.08.86,1.94-.05.17-.1.34-.15.5-.01.47-.19.93-.47,1.31.13-.07.26-.12.4-.17.19-.57.38-1.11.57-1.66l.15.05c-.24.42.24,1.12-.09,1.53.12,0,.23.03.34.07,0,0,0,0,0,0-.02-.14,0-.29,0-.25.04-.78-.26-1.36,0-1.96.19-.43.41-.76.88-.96.52-.22.64-.03.64.42,0,.91.01,1.83,0,2.74,0,.05,0,.11.01.17.2.03.39.07.6.11.05,0,.09.02.14.02,0-.01-.01-.02-.02-.03-.32-.7-.46-1.42-.38-1.94.04-.79,0-1.33.11-1.87.06-.3.19-.49.4-.67.36-.31,1.67-.42,2.1-.22.66.31.6.87.55,1.44-.01.14-.11.29-.09.42.18,1.2-.55,1.91-1.37,2.57-.1.08-.18.2-.26.31.07,0,.14,0,.21,0,.13,0,.27,0,.4.02.36-.38.64-.82.92-1.26.13-.21.39-.29.54-.14.92.93,2.23.98,3.32,1.52.26.13.53.22.8.32.29-.01.58-.01.88.02.39-.29.74-.57.96-.99.11-.22.19-.18.33.01.24.31.68.4.97.25.63-.33,1.09.08,1.59.26.21.08.41.15.62.21.37,0,.74.03,1.11.05.2-.06.36-.17.51-.36.05.18.14.32.25.43.16.02.32.03.48.05-.22-.13-.39-.36-.5-.69-.24-.68.52-.39.57-.76-.38.06-.73.23-1.09.5-.11-.99.3-1.91.26-2.86,0-.18.2-.29.4-.34.71-.16,1.43-.22,2.14-.11.73.11,1.02.52.93,1.24-.09.7-.22,1.4-.36,2.09-.07.34-.82.87-1.38,1.04.19.02.37.03.56.05.48-.28.92-.42,1.12-.86q.76.83,1.94.12v.74c.1-.03.19-.06.29-.09.04-.01.08-.02.12-.03-.01-.07-.02-.16-.01-.25.06-1.55.06-3.11.19-4.66.19-2.19.19-4.39.21-6.58,0-.44.12-.89.09-1.33-.04-.55.24-.62.68-.58.29.02.59,0,.88,0h0c.34,0,.67.03,1.01,0,.44-.05.56.16.5.54-.24,1.47-.06,2.96-.12,4.44-.06,1.4-.11,2.8-.12,4.2.01.01.02.02.03.03.08.07.18.14.27.19,0,0,.01,0,.02.01,0-.01.02-.02.02-.03.05-.05.09-.11.13-.16,0-.56,0-1.12.01-1.69.03-2.11.07-4.23.14-6.34.04-1.38.07-1.37,1.5-1.31.39.02.55.14.55.56-.04,2.52.03,5.04-.1,7.55-.05.91-.06,1.83-.06,2.74,0,.02,0,.04.02.05,0,0,.03.05.05.08,0,0,.05.06.05.06,0,0,0,0,.01,0,.02.01.04.02.06.03,0-.01.14.03.07.02.07,0,.14.03.2.06.13-.06.36-.06.76-.06,3.76,0,7.51,0,11.27,0h0c3.42,0,6.85,0,10.27,0,2.55,0,5.11-.06,7.66-.06,2.33,0,4.66.07,6.99.06,2.1,0,4.2-.09,6.31-.11,2-.02,4,.02,6,.02.31,0,.45.08.45.42,0,.29,0,.58.01.87.04-.03.09-.06.14-.07.07-.02.15-.02.22,0,0-.24-.01-.48-.03-.72-.04-.44.19-.52.53-.53.99,0,1.99,0,2.98,0,3.87,0,7.74,0,11.62,0h0c4.89,0,9.78,0,14.67-.02.32,0,.41.07.4.37-.01.56-.02,1.11,0,1.67,0,0,0,0,0,0,.04.02.08.04.12.06-.16-.08-.01,0,.03,0,.04.01.08.02.12.03,0,0,.01,0,.02,0,.01,0,.03,0,.04,0,0,0,0,0,0,0,0,0,.02-.01.02-.01,0,0,0,0,0,0,0-.1,0-.2.02-.33.03-.43,0-.84-.03-1.26-.03-.37.06-.54.47-.51.56.04,1.13,0,1.7,0v-.08c1.35,0,2.69-.03,4.04.01,1.03.03,2.06.03,3.08,0,.24,0,.5.02.57.46.02.1.03.2.04.31.05.05.09.11.14.16,0,0,.01.01.02.02.04-.04.1-.09.13-.13,0,0,0,0,0-.01.01-.01.02-.03.03-.04,0,0,.01-.02.02-.03-.1-2.56-.19-5.13-.31-7.69-.08-1.71-.2-3.41-.25-5.12-.02-.62.2-.68.72-.62.49.06.99.03,1.48.01.27,0,.35.07.34.36-.03.8-.01,1.59-.01,2.39.04,2.42.1,4.85.2,7.27.05,1.21,0,2.42.03,3.63.06.04.11.09.15.14.08-.14.16-.28.25-.41,0-.54-.03-1.08-.12-1.62,0-3.19.02-6.38-.02-9.57,0-.65-.02-1.31-.07-1.96-.01-.2-.02-.31.24-.29.6.03,1.21.04,1.82.04.26,0,.36.05.34.35-.03.47.12.97.03,1.42-.19,1.01.09,1.99.11,2.99.02,1.08.08,2.16.19,3.24.09.93.09,1.87.13,2.8.04.86.07,1.71.12,2.57.03-.01.06-.02.09-.03.12-.02.22.01.31.07-.08-1.89-.17-3.78-.27-5.67-.03-.52.07-.69.64-.66,1.14.07,1.16.06,1.28,1.22.06.61.16,1.22.83,1.54.2.09.32.37.47.57-1.27.21-1.9,1.08-2.35,2.13-.19.44-.26.9-.28,1.37.13.41.09.87.07,1.3,0,.05,0,.1,0,.15.05.1.13.18.19.28.07-.02.14-.03.2-.05.05-.01.09-.02.13-.04-.01-.06-.02-.12-.03-.18-.26-.1-.35-.36-.28-.8-.03-1.1.33-2.11,1.25-2.87.2-.16.32-.38.45-.6.27-.46.94-.48,1.26-.07.69.88.88,3.1.27,4.01-.08.12-.18.22-.29.29,0,.05,0,.09,0,.14.08.01.17.02.25.03.1.01.21.02.31.03-.02-.04-.04-.09-.03-.16.01-.25.26-.41.52-.45.34-.05.46.29.48.45.02.13-.02.19-.09.23.02,0,.05,0,.07,0,.2.02.4.04.6.05,0,0,0-.01,0-.02-.14-.1-.23-.28-.27-.57-.08-.54-.32-1.06-.39-1.62-.12-.91.79-1.75,1.52-1.92.75-.17,1.4-.53,1.85-1.2.34-.52,2.21-.87,2.67-.5.35.28.37.74.38,1.13.03,1.03.2,2.02.41,3.02.12.58.05,1.12-.39,1.38.17.02.35.04.52.07.07-.24.14-.43.39-.4.1.01.25.12.29.23.14-.03.28-.05.42-.07,0,0,.01,0,.02,0-.23-.19-.41-.48-.48-.85-.13-.66-.18-1.34-.26-2.01-.1-.56.4-1.03.21-1.64-.05-.16.48-.52.85-.62.16-.04.14.19.16.28.12.67.58.94,1.19,1.1,1.25.33,1.82,1.53,1.4,2.75-.12.35-.33.6-.64.71-.13.05-.27.09-.41.13.29-.02.58-.05.86-.08.02,0,.05,0,.07,0,.29-.35.55-.71.51-1.29.24.45.47.8.79,1.15.16-.02.33-.03.49-.05-.46-.25-.76-.69-1.01-1.23-.46-1-.24-2.09-.29-3.15-.02-.41.74-.91,1.27-.94.36-.02.71,0,1.13,0,.48-.04,1.02.08,1.55-.11.14-.05.35-.08.46.09.35.54.93.81,1.41,1.2.09.07.18.18.22.29.39.98.41,2,.11,3-.11.35-.31.56-.55.69.09.02.17.04.25.07.08-.03.15-.06.23-.09.09-.03.18-.07.27-.1-.19-.26.2-.6.22-.92,0-.13-.06-.3.12-.39.42.79.54.89.98.81.44-.08,1.03-.67,1.05-1.12,0-.16.02-.32.03-.48-.09.16-.21.3-.35.4-.03.2-.12.41-.26.56-.48.52-.85.43-1.04-.25-.19-.7-.37-1.4-.51-2.11-.07-.33-.01-.67.17-.93.08-.22.2-.44.34-.63-.42.17-.7.53-.81,1.04-.42-.26-.81-.5-1.19-.75-.2-.13-.39-.31-.09-.53.46-.34.5-.83.54-1.33.08-.97.54-1.3,1.55-1.15.12.02.24.06.35.11.13-.04.25-.07.38-.1-.05-.05-.1-.09-.15-.14.42-.03.7-.03.86.03.31-.03.62-.05.94-.05,0-.02,0-.03.01-.05.09-.17.15-.35.19-.52-.25,0-.5,0-.74,0-.3.07-.85.04-1.83.04-1.85.17-4.08.02-6.3.15-1.83.1-3.67-.04-5.48.14-1.75.17-3.51.09-5.26.12-1.29.02-2.59.24-3.89.1-.28-.03-.36-.09-.39-.34-.09-.73-.05-1.46-.01-2.2.01-.25.12-.32.35-.32,1.2,0,2.4,0,3.6-.01,1.99-.03,3.98-.1,5.96-.11,2.01-.01,4.01-.02,6.02-.09,1.67-.06,3.35-.03,5.03-.05.17-.06.35-.11.51-.14.5-.1,1-.06,1.5.01.17.02.37.06.57.1.06,0,.11-.02.17-.03-.1-.15-.25-.26-.45-.3-.39-.06-.76-.24-1.14-.28-1.89-.19-3.79-.42-5.69-.48-1.73-.06-3.46-.24-5.2-.26-.27,0-.35-.08-.44-.36-.39-1.2-.25-2.45-.31-3.67-.1-2.27,0-4.55-.23-6.82-.03-.32.1-.41.41-.42.63,0,1.24-.09,1.74-.54.22-.2.35-.15.56.05.65.63.84,1.46,1.12,2.27.25.72.77.82,1.32.26.15-.15.16-.45.48-.45.04.7-.03,1.39.13,2.07.04.18,0,.39.23.47.25.09.48-.03.62-.2.2-.23.35-.51.49-.79.27-.56.54-1.12.68-1.75.35,1.65.13,3.4,1.09,5,.08-.52.07-.99.31-1.36.28-.42.22-.82.04-1.24-.13-.32-.32-.64-.37-.98-.07-.45-.29-.99.16-1.34.27-.2.43-.37.39-.7-.02-.14.03-.24.19-.28.65-.16.96-.65,1.26-1.2.2-.38.55-.68.85-1,.16-.18.32-.23.37.09.05.31.2.64.13.91-.1.39-.53.13-.81.22-.38.13-.7.31-.57.74.11.35.4.52.83.44.54-.09.89-.55,1.38-.69.78-.22,1.08-.85,1.44-1.45.08-.13.17-.27.06-.4-.12-.13-.28-.07-.4.03-.36.27-.61.04-.94-.11-.71-.32-1.18-.71-1.03-1.56.01-.07-.06-.15-.08-.23-.24-.91-.94-1.17-1.68-.59-.39.31-.78.65-1.09,1.04-.67.84-.62.83-1.32.05-.29-.32-.66-.76-1.12-.61-.76.25-1.26.84-1.52,1.63-.2.6-.2,1.14.33,1.58.04.03.08.11.07.16-.18.72.04,1.57-.69,2.12-.21.16-.35.46-.67.36-.3-.1-.35-.38-.39-.65-.1-.79-.41-1.49-1.01-2.04-.22-.2-.24-.33,0-.53.65-.56,1.05-1.3,1.39-2.06.52-1.14,1.33-1.88,2.61-2.06.53-.07,1.03-.27,1.46-.63.56-.47.78-1.26.45-1.75.15-.12.32-.07.48-.09.83-.08,1.63-.32,2.41-.59,1.3-.45,1.96-1.53,2.62-2.63.44-.75.7-1.63,1.43-2.17.29-.22.41-.38.22-.7-.2-.33-.05-.54.25-.7.11-.06.21-.14.29-.22,1.21-1.31,1.67-2.86,1.43-4.6ZM58.66,12.37c.04-.27.29-.29.47-.32.26-.04.37.25.38.4.02.23-.26.19-.42.24-.15-.11-.47.04-.43-.32ZM5.62,66.69c-.19.08-.41-.05-.45-.23-.05-.21.14-.33.33-.35.4-.04.81-.13,1.31.07-.39.33-.81.36-1.19.51ZM9.45,66.8c-.49.11-.91-.14-1.33-.27-.09-.03-.53-.36.03-.51.09-.02.17-.12.25-.18.4-.32.65-.21.79.26.07.24.17.46.26.71ZM18.07,58.89c-1.14.87-2.32,1.68-3.47,2.55-1.39,1.05-2.74,2.16-4.28,3-.36.2-.74.35-1.18.56,0-.78.3-1.37.58-1.96.53-1.12,1.52-1.79,2.46-2.51.33-.25.6-.57.91-.84.34-.3.39-.68.3-1.09-.09-.4-.06-.71.43-.85.27-.08.55-.26.71-.48.78-1.07,2.02-1.06,3.12-1.38,1.39-.41,2.82-.68,4.11-1.38,1.18-.64,2.27-.09,3.48.27-2.79.83-4.99,2.46-7.18,4.12ZM46.86,53.95c-.24.06-.55.07-.56-.3,0-.22-.23-.47-.05-.65.19-.19.45,0,.65.07.42.15.89.18,1.32.48-.49.15-.92.3-1.36.4ZM49.59,53.23c-.06.39-.48.26-.74.19-.66-.17-1.31-.4-1.96-.6-.21-.06-.43-.11-.65-.16.28-.67.8-.74,1.48-.21.25.19.38.7.74.55.29-.12.06-.57.13-.86.04-.16.09-.32.17-.46.09-.16.21-.34.42-.33.23.01.31.24.33.4.06.49.14,1,.07,1.49ZM50.69,52.68c-.33.04-.4.45-.81.4.22-.71.25-1.37-.07-2.07-.42-.93-.07-1.74.64-2.5.05,1.21.49,2.27.7,3.4.09.46-.05.71-.47.76ZM54.53,53.21c.02.22-.01.54-.18.55-.24.01-.51-.16-.74-.29-.21-.12,0-.25.05-.36.12-.29.04-.51-.17-.73-.25-.26-.48-.53-.73-.8,0,0,0,0,0,0-.07-.4.19-.71.33-1.1.42.94,1.36,1.6,1.45,2.73ZM52.2,48.07c.07-.24.19-.56.54-.49.35.07.51.35.52.69,0,.14,0,.29-.05.43-.2.72-.42,1.43-.62,2.15-.04.15-.09.28-.27.31-.69-1-.43-2.05-.13-3.09ZM52.23,52.04c-.06.31.31.58.01.87-.09.08-.28.02-.32-.09-.11-.31-.12-.61.31-.78ZM52.59,53.98c-.51.03-.41-.47-.71-.71.36-.09.58-.04.77.2.18.21.09.36-.06.52ZM53.03,53.24c-.36-.09-.52-.32-.42-.64.11-.33-.48-.77.14-1.01-.04.37.27.52.49.72.23.2.37.41.24.7-.08.19-.21.28-.45.22ZM3.62,82.19c-.5-.06-.42-.58-.58-.9-.08-.17.17-.43.37-.38.41.09.59.42.58.82.07.32-.17.48-.37.46ZM4.44,82.12c-.16-.54-.38-.88.01-1.27.43-.42.6.21,1.03.08-.43.4-.97.49-1.05,1.19ZM7.77,83.18c-.29-.09-.71-.09-.86-.29-.31-.41-.41-.18-.55.07-.24.42-.61.34-.77.05-.2-.36-.88-.59-.45-1.21.29-.41.9-.58,1.5-.36.14.05.27.12.41.16.36.1.4.04.33-.43.5.35.74.83.83,1.35.04.2-.4.34-.43.65ZM8.88,80.95c-.26.23-.27.26-.44,1.23-.28-.74-.64-1.25-1.41-1.45-.4-.11-.32-.71-.41-1.1-.07-.3.29-.36.51-.46.91-.38,1.97-.1,2.58.64.24.29.2.5-.16.6-.31.08-.6.16-.67.53ZM9.95,81.46c-.02.15-.22.28-.34.41-.18-.06-.28-.16-.33-.3-.07-.2.35-.92.57-.97.08-.02.17-.01.22.08.15.28-.09.52-.12.78ZM10.54,80.7c.34.28.69.52.71,1.07q-1.09-.22-.71-1.07ZM4.38,92.21c-.25.03-.4-.1-.58-.26-.62-.58-.26-2.65.39-3.04.05-.03.1-.1.15-.1,1.35,0,2.75-.21,3.9.78.24.21.33.54.27.86-.05.27.06.43.24.58-.05.03-.13.05-.14.09-.38,1.32-1.55,1.02-2.46,1.14-.57.07-1.18-.12-1.78-.04ZM9.66,91.83c-.14-.91.15-1.72.7-2.44.09-.12.25-.25.42-.17.15.07.25.21.25.4,0,.33.21.64.12.94.03.66-.45,1.4-1,1.59-.3.1-.45-.07-.49-.32ZM9.75,93.3c-.04.16-.15.34-.35.36-.21.02-.27-.16-.25-.34.02-.2.14-.29.34-.3.17,0,.29.05.26.28ZM9.62,89.63c-.33.15-.71.27-.8.73.07-.76-.53-1.05-.95-1.48.57-.17,1.11.02,1.64.04.14,0,.42.02.41.27,0,.18-.1.34-.3.43ZM5.06,93.76c-.22-.43-.22-.81-.27-1.2h.66c0,.44-.39.7-.39,1.2ZM7.37,95.25c-.14.1-.23-.02-.35-.03-.31-.04-.6-.14-.92-.15-.7-.02-.78-.12-.78-.85-.08-.33.09-.66.22-.99.18-.47.51-.76,1.08-.64.57.12,1.29-.06,1.46.8.1.47-.32,1.59-.71,1.86ZM8.36,94.35c.07-.82.1-1.59-.81-2.05.86-.05,1.13-.57,1.21-1.26.27.45.19,1.07.69,1.42.11.08-.03.16-.13.21-.36.16-.56.39-.48.82.08.45.47.39.78.49-.15.28-.29.52-.43.78-.13-.38-.24-.8-.84-.42ZM11.1,95.14c-.34-.03-.68-.28-1.04.04-.28.24-.27.65-.62.86-.21-.68.07-1.25.4-1.8.23-.37.35-.02.51.09.27.19.54.58.9.08-.05.24-.1.48-.15.73ZM10.84,94.36c-.14-.13-.29-.22-.38-.35-.14-.2-.57-.07-.5-.5.08-.48,0-.98.57-1.26.49-.24.79-.11.8.45,0,.58-.12,1.14-.48,1.66ZM11.5,88.04c.04.21.02.43-.3.43-1.21,0-2.42,0-3.63,0-.2,0-.36-.08-.29-.29.07-.26-.05-.49-.02-.74.04-1.3-.21-1.08,1.09-1.08.93,0,1.85.09,2.78.14.08,0,.2-.04.24,0,.5.47.03,1.03.13,1.54ZM11.83,89.39c.02-.76.07-1.51.09-2.27.01-.47.3-.52.67-.53,1.25-.06,2.48.18,3.73.19,1.63.02,3.26.1,4.9.1.45,0,.55.14.53.53-.02.36,0,.71,0,1.07,0,0-.02,0-.03,0,0,.5.18,1.12-.05,1.48-.29.45-.91-.02-1.4,0-2.65.13-5.3-.15-7.96-.08-.42,0-.49-.18-.48-.49ZM28.63,89.89c.07.27-.18.28-.37.28-.44,0-.88,0-1.32,0,0-.02,0-.04,0-.07-1.47,0-2.94,0-4.4,0-.28,0-.43-.06-.45-.36-.06-.88.09-1.77-.05-2.66-.04-.24.18-.19.31-.19,1.96.04,3.93.07,5.89.12.47.01.43.42.41.69-.05.72-.2,1.44,0,2.17ZM27.19,92.66c-.73.02-1.47.01-2.2,0-.53-.02-.86-.37-.88-.86-.03-.63.45-.64.85-.66.89-.03,1.8-.11,2.61.41-.13-.43-.58-.38-1-.66.45,0,.75-.01,1.05,0,.41.02.74.61.52.96-.06.09-.19.02-.27-.05.12.53-.12.85-.67.86ZM26.18,90.54c.12,0,.26-.04.41.25-.92-.07-1.77.1-2.63.02-.77-.08-1.55-.08-2.09.7-.88-1.42-2.02-.17-3.05-.37-.16-.66.22-.75.82-.73,2.18.07,4.36.09,6.54.13ZM23.63,91.66c.12.66-.38.68-.78.74-.51.07-.4-.39-.51-.67-.1-.28.05-.4.27-.46.38-.1.76-.17,1.34-.29-.33.26-.35.48-.31.68ZM18.06,91.29c-.07.15-.26.11-.4.07-.31-.09-.43-.42-.42-.64.03-.38.24-.08.37-.02-.05-.49.33-.28.51-.27.38,0,.39.29.34.62-.24-.1-.45-.19-.67-.29.02.21.37.27.25.52ZM12.41,90.73c.01-.1-.02-.23.11-.26.15-.04.22.08.27.2.19.41.15.9.54,1.31-.82-.2-1.02-.51-.93-1.24ZM12.96,90.34c.17-.06.39-.12.44.08.08.34.53.7-.06,1.09-.13-.39-.25-.76-.38-1.17ZM14.9,92.29c-.05.27,0,.55-.06.81-.07.31-.09.73-.55.7-.45-.03-.77-.31-.86-.77-.07-.33-.07-.72.11-.97.39-.54.54-1.28,1.35-1.58-.28.63.12,1.22.02,1.82ZM15.45,93.52c-.05.19.13.44-.12.55-.08.03-.45.06-.27-.29.05-.09.12-.19.13-.28.04-.7.16-1.42-.09-2.09-.21-.58-.08-.87.54-.92.1,0,.2-.04.3-.08.57-.23.92-.06,1.03.56.03.16.11.31.19.52-1.17.13-1.72.73-1.71,1.86,0,.06.02.13,0,.19ZM16.4,95.79c-.18-.4-.18-.84-.6-1.26q1.04.31.6,1.26ZM18.14,94.11c-.7.49-1.37.42-2.11.12-.3-.12-.26-.38-.29-.56-.2-1.01.54-2.2,1.76-1.95.73-.31.95.21,1.13.85.08.29.27.54.41.81-.41.1-.57.5-.9.73ZM21.38,93.15c-.57-.11-1.13-.2-1.73-.02-.35.11-.55-.17-.7-.48-.5-1.03-.5-1.04.64-1.28.4-.08.81-.16,1.22-.22.47-.06,1.1.68,1.12,1.31,0,.08-.04.16-.07.26.2.54-.11.5-.49.43ZM27.81,97.55c-.18.64-1.06,1.02-1.65.78-1.02-.41-2.08-.69-3.05-1.21-1.34-.73-1.35-.74-1.1-2.22.03-.16.07-.31.06-.48-.02-.86.22-1.13,1.07-1.28.31-.05.62-.12.86-.33.09-.08.18-.17.33-.11,1.34.47,2.67.19,3.99-.06.34-.06.63-.06,1.1.13-1.09.34-1.2.98-1.04,1.94.16.95-.32,1.91-.57,2.84ZM28.55,95.7c.21-.49.04-1.03.22-1.55.26.86.03,1.79.52,2.65-.85-.1-1.02-.46-.74-1.1ZM29.02,97.69c-.29.03-.51-.09-.57-.36-.03-.11.05-.39.26-.31.27.09.57.22.66.51.04.13-.2.17-.35.16ZM34.03,94.12c-.83.03-1.07.26-1.21,1.1-.12.74-.38,1.45-.35,2.21,0,.26.05.49.21.7-1.44.44-2.87-.34-3.3-1.72-.17-.53-.29-1.03-.19-1.59.04-.2-.02-.42-.07-.62-.19-.7,0-1.06.73-1.3.55-.17,1.1-.31,1.65-.47-.68.06-1.37-.1-2.06-.1-.65,0-.82-.34-.91-.85-.12-.7.48-.81.87-.83,1.29-.06,2.59-.01,3.88.02.38,0,.54.53.3.86-.09.12-.21.21-.31.31-.38.39-.37.74.13,1.03.5.29.64.87,1.12,1.17-.21.2-.35.08-.49.08ZM35.9,93.89c-.88.12-2-.43-2.3-1.24-.14-.38-.05-.79.4-1,.4-.18.81-.17,1.23-.18.89.07,1.79.13,2.68.21.19.02.47-.09.54.18.07.29-.1.53-.36.67-.5.26-1.03.5-1.39.91-.24.28-.47.4-.81.45ZM38.29,96.2c-.08.46-.06.94-.24,1.39-.14.35-.27.69-.72.61-.42-.07-.58-.38-.5-.8.06-.47.1-.95.17-1.42.05-.33.24-.57.59-.42.29.12.79.04.69.65ZM37.1,95.26c-.16-.07-.3-1.14-.18-1.35.03-.05.08-.1.12-.15.3-.33.56-.8,1.08-.62.5.18.09.77.35.99,0,.57-.99,1.3-1.38,1.12ZM38.67,92.67c-.05.1,0,.26-.22.16-.21-.09-.17-.18-.05-.31.15-.16.24-.33.25-.56,0-.27-.06-.43-.37-.46-1.06-.1-2.11-.24-3.16-.33-.24-.02-.49.05-.74.1-.31.07-.43-.11-.44-.37-.01-.28.23-.17.37-.17,1.18.01,2.35.03,3.53.04.95,0,.95,0,.92.97-.02.31.07.62-.09.92ZM38.86,87.9c-.13.67-.07,1.33-.07,2,0,.41-.12.53-.53.53-1.71-.02-3.42,0-5.12,0-1.28-.03-2.55-.23-3.82-.23-.34,0-.43-.13-.42-.45.02-.73.03-1.47,0-2.2-.02-.44.17-.52.55-.52,2.41.05,4.83.09,7.24.13.48,0,.96.02,1.44-.02.57-.04.84.25.74.76ZM37.87,86.83c-2.03-.19-4.07,0-6.1-.14-1.98-.14-3.96-.04-5.94-.12-2.14-.09-4.27-.04-6.41-.09-1.64-.04-3.29-.16-4.97-.24.18-.32.39-.23.57-.23,2.63-.05,5.26-.06,7.89-.15,2.78-.09,5.56-.16,8.34-.26,1.58-.06,3.16,0,4.73-.13.79-.07,1.58-.03,2.36-.08.4-.03.56.05.57.49.01,1-.02,1.06-1.04.96ZM38.61,84.99c-.6.12-1.2.09-1.8.09-.13,0-.25,0-.38,0-4.86.14-9.72.27-14.58.35-1.4.02-2.81-.04-4.19.11-1.6.18-3.22-.07-4.81.21-.54.09-.77-.1-.69-.67.05-.39.03-.8,0-1.19-.02-.28.06-.41.37-.4,3.21.1,6.42.2,9.64.3.68.02,1.37.07,2.05.09,4.37.13,8.75.24,13.12.39.41.01.81.1,1.23.08.16,0,.46-.08.45.27,0,.28-.19.34-.41.38ZM40.84,84.96c-.25,0-.5,0-.75,0-.74,0-.83-.1-.69-.82.17-.94.17-.95,1.17-.93.52.01,1.03.08,1.55.11.2,0,.32.06.3.29,0,.04,0,.08,0,.13q.06,1.23-1.57,1.23ZM42.42,82.84c-.95-.01-1.97-.93-1.94-1.75.04-1.12,1-2.07,2.1-1.99.92.07,1.95.85,1.95,1.82,0,1.06-.97,1.93-2.11,1.92ZM44.83,84.61c0,.11-.06.21-.18.21-.56.04-1.12-.03-1.67.13-.1.03-.12-.05-.12-.15.01-.14-.02-.29-.02-.43.04-.98.06-.99,1.08-.93.04,0,.08.02.12.03.25.03.62-.2.74.08.12.31.05.7.05,1.05ZM165.92,74.62c-.17.08-.4.05-.46-.18-.07-.24.1-.31.31-.36.33-.09.65-.12,1.11-.06-.31.36-.65.46-.96.6ZM166.99,73.58c-.35-.35-.22-.85-.39-1.32q1.14.46.39,1.32ZM164.24,74.27c-.13.12-.29.22-.41.05-.1-.15-.02-.33.14-.42.19-.11.4-.18.64-.29.02.36-.19.5-.37.67ZM164.13,71.22c.38-.29.69-.65,1.05-.97.23-.2.41-.2.58.12.41.75.4,1.23-.17,1.86-.47.51-.91,1.07-1.63,1.34-.09-.38.03-.71-.15-1-.37-.56-.17-.97.32-1.35ZM161.08,77.28c-.18.27-.25.62-.62.84-.32-.69-.05-1.4-.2-2.05-.15-.64.12-1.05.54-1.44.14-.13.21-.47.44-.35.24.12.44.35.45.69.03.83-.14,1.62-.61,2.3ZM163.04,79.26c-.1-.57-.17-1.03-.09-1.51.2.45.59.89.09,1.51ZM163.24,75.38c-.27.15-.37.4-.57.79v-1.48c.19.03.37.02.49.1.22.15.46.39.08.6ZM162.66,73.02c.07-.3-.22-.81.21-.86.38-.04.51.48.64.8.17.39-.24.87-.67.92-.29.03-.23-.21-.25-.32-.03-.17.04-.36.07-.54ZM162.31,72.64c-.14.37-.03.83-.03,1.25,0,.31-.23.41-.45.38-.2-.03-.55-.16-.41-.42.46-.92.42-1.87.21-2.92.6.5.97.94.68,1.71ZM161.31,70.85c.2.85.17,1.67.04,2.49-.03.2-.17.48-.4.46-.25-.02-.58-.2-.53-.51.12-.81.22-1.64.7-2.34.03-.04.1-.05.2-.1ZM160.52,71.26c-.18.71-.33,1.32-.5,1.99-.38-.59-.18-1.34.5-1.99ZM166.7,58.32c.19-.13.25-.03.32.1.29.55.64,1.07.8,1.68.1.39.07.54-.36.68-1.32.43-2.67.71-4.13.98.3-.28.38-.59.52-.86.61-1.24,1.79-1.84,2.85-2.58ZM165.6,56.63c.21.3.44.61.72.85.4.34.22.53-.1.75-.36.24-.71.51-1.08.74-.76.48-1.36,1.09-1.72,1.92-.18.42-.43.7-.94.67-.2,0-.4.09-.6.14-1.08.27-1.18.21-1.5-.89-.07-.24-.11-.48-.13-.54-.03-1.23.74-1.8,1.39-2.43.34-.33.72-.64,1.13-.87.4-.22.69-.78,1.3-.47.08.04.26-.05.34-.13.52-.47.85-.2,1.18.26ZM166.6,50.42c.49.58.58,1.16.16,1.81-.18.28-.34.57-.58.96-.3-1.39-1.37-2.02-2.26-2.79-.3-.26-.58-.54-.84-.84-.48-.55-.89-1.18-1.52-1.6,2,.18,3.72.9,5.04,2.46ZM149.88,42.83c1.53-2.6,4.15-2.98,6.45-2.13.91.34,1.17,1.2,1.4,2.02.3,1.1.62,2.19,1.07,3.24.22.52.55.97.97,1.41-.58-.11-1.14-.05-1.69-.07-.37-.01-.51-.34-.71-.57-.81-.94-1.69-1.79-2.75-2.46-1.12-.71-2.35-.9-3.65-.69-.23.04-.46.05-.69.04-.48-.03-.64-.39-.4-.8ZM157.32,47.13c-2.88.28-5.03-.92-6.65-3.21,2.49-.64,4.8.83,6.65,3.21ZM150.33,44.28c.77.57,1.37,1.33,2.09,1.95,1.06.91,2.38,1.09,3.71,1.19.5.04.99.2,1.49.13.39-.05.33.46.64.51-.06-.34.11-.39.42-.41,1.61-.11,2.92.42,3.88,1.75.65.91,1.58,1.53,2.38,2.29.5.48,1.01,1.04.84,1.78-.22.92-.52,1.83-1.27,2.49-.12.1-.27.24-.44.17-.26-.1-.04-.28-.02-.42.03-.22-.03-.41-.14-.6-.15-.25-.41-.35-.64-.26-.28.12-.07.38.02.52.26.42.09.68-.25.94-.71.54-1.45,1.05-2.11,1.67-1.25,1.17-1.46,2.34-.57,3.78.22.36.12.44-.17.59-.88.45-1.57,1.12-2.2,1.89-.77.93-.28,2.53,1.09,2.63-.23.37-.5.71-.32,1.18.11.28-.13.43-.3.56-.82.63-1.83.79-2.78,1.05-.38.1-.69-.39-1.11-.47-.59-.12-.42-.62-.44-1.01-.04-.67.01-1.34.24-1.97.29-.8-.18-1.36-.48-2.03-.63-1.4-1.24-2.85-.44-4.41.39-.76,1-1.33,1.67-1.84.28-.21.63-.34.79-.68-2.35,1.19-3.75,3.18-2.79,5.67.3.77.45,1.59.83,2.34.15.3-.12.67-.19,1.01-.12.63-.11,1.27-.16,2.06-.42-.69-.92-1.08-1.41-1.49-.13-.1-.26-.19-.25-.4.01-.23.14-.54-.16-.67-.35-.15-.74-.15-1.09.06-.31.18-.62.35-.91.54-.18.11-.36.16-.52.05-.2-.14,0-.29.05-.44.5-1.42.3-2.2-.85-3.16-1.21-1.01-2.45-1.79-4.1-1.55-.22.03-.31,0-.37-.26-.23-1.09-.77-1.81-2.45-1.48-.07-1,.04-2-.13-3-.27-1.51-.23-3.05-.37-4.58-.07-.86.32-1.49.96-2.04,1.49-1.28,3.26-2.17,4.74-3.45.72-.63,1.38-1.33,2.04-2.03.37-.39,1.14-.47,1.57-.15ZM161.88,66.39c-1.17.16-1.88,1.18-2.94,1.57-.03-1.02,1.24-1.71,2.94-1.57ZM155.11,69.91c-.99.17-1.03.15-.88-.55.23.28.64.24.88.55ZM151.71,70.05c-.29-1.23-.37-2.5-.52-3.75-.01-.09-.02-.23.21-.2-.19.69.24,1.06.73,1.43.52.39.89.92,1.28,1.44.28.37.17.76.19,1.14,0,.04,0,.11-.03.12-.47.25-.98.06-1.46.12-.24.03-.36-.1-.41-.3ZM151.91,72.93c-.23,0-.34-.15-.42-.29-.21-.35-.41-.4-.8-.21-.38.19-.88.17-1.09-.29-.2-.43-.11-.93.47-1.15.08-.03.14-.09.22-.11,1.37-.37,1.27-.28,1.51,1.01.06.34.08.69.12,1.04ZM152.29,70.66c.2.04.42.05.62.04.57-.03.79.32.81.8.04.72-.02,1.44.14,2.22-.53-.09-.91-.36-1.36-.36-.2,0-.28-.16-.29-.34-.02-.67-.15-1.32-.27-1.98-.05-.29-.02-.45.34-.38ZM146.1,63.75c.77.73,1.71,1.29,2.17,2.34.2.45.05.58-.33.61-.87.07-1.63-.11-1.55-1.36.05-.71-.08-1.11-.29-1.58ZM145.19,62.64c-.43-.27-.74-.65-1.15-1.04,2.18-.56,3.47.8,4.79,2.01.5.46.5,1.62.13,2.17-.11.16-.2.25-.3.03-.72-1.54-2.11-2.34-3.47-3.17ZM141.8,59.8c1.04-.31,1.79.28,1.76,1.39-.61-.45-1.04-1.09-1.76-1.39ZM143.24,61.34c-1.2.63-1.65.26-1.61-1.22.4,0,.61.34.87.54.25.19.4.52.74.68ZM148.42,43.1c.25-.12.51-.17.66.1.16.28-.16.4-.3.53-.27.25-.61.12-.93.09-.26-.03-.53-.01-.83-.08.49-.22.95-.42,1.4-.63ZM145.01,43.95c-.94.53-1.88,1.06-2.84,1.6,0-1.11,2.04-1.91,2.84-1.6ZM136.88,53.24c.28-.36.5-.72.51-1.16.03-.99.4-1.82,1.05-2.54,1-1.11,2.12-2.09,3.34-2.98-.18.51-.53.89-.86,1.28-1.09,1.34-1.25,2.87-1.06,4.53.27,2.32-.42,4.4-1.8,6.26-.67.9-.93.86-1.56-.11-.35-.54-.11-1.07-.02-1.58.1-.57,0-1.06-.16-1.57-.25-.82.08-1.52.55-2.13ZM136,57.96c.14.59.4.92.7,1.25.46.5.86.53,1.29,0,1.18-1.45,1.89-3.1,2.16-4.96.15-1.03-.08-2.02-.12-3.02-.05-1.36.42-2.56,1.35-3.57.38-.41.69-.86.87-1.42.14-.45.67-.57,1.05-.79.88-.5,1.78-.97,2.76-1.25.75-.21,1.48.22,2.34.02-.78,1.16-1.79,1.89-2.75,2.65-1.21.95-2.57,1.67-3.76,2.66-.9.75-1.26,1.62-1.12,2.7.1.81,0,1.63.13,2.44.34,2.14.33,4.31.49,6.47.03.41.26.65.68.66.06,0,.13,0,.19,0,.78-.12,1.49-.2,1.73.87.1.44.67.59,1.09.75.66.25.88.78.97,1.4.03.18,0,.38,0,.57,0,1.38,1.08,2.08,2.39,1.54.13-.05.21-.22.39-.13.62.34,1.13.05,1.59-.33.37-.31.48-.05.51.23.14,1.13.13,2.28.48,3.38.08.25-.12.3-.3.26-.48-.11-.91-.44-1.44-.37-.03,0-.1-.07-.11-.12-.34-1.04-1.2-1.05-2.05-1-.42.03-.71.05-.63-.5,0-.02,0-.04,0-.06-.13-.24-.13-.68-.46-.65-.41.04-.29.46-.28.75,0,.13.04.25,0,.31-1.62-.75-2.55-2.15-3.53-3.55-.64-.92-1.34-1.81-2.04-2.69-.54-.68-1.26-1.06-2.17-1.04-.65.02-1.3,0-1.95,0-.22,0-.42,0-.41-.32.04-.92.02-1.84-.11-2.76-.01-.07.03-.15.07-.39ZM147.01,69.66c0-.28.18-.3.38-.27.21.03.34.15.21.39-.16.3-.31.61-.46.91-.04-.01-.08-.03-.13-.04,0-.33,0-.66,0-.99ZM145.8,70.44c0-.1.01-.21.02-.31,0,0,0,0,.01,0,.01-.24.02-.48.03-.72,0-.11.04-.21.17-.21.12,0,.21.07.21.18,0,.37.02.75-.02,1.11-.01.14-.1.37-.29.34-.23-.03-.13-.26-.14-.41ZM145.23,68.57s-.09.05-.11.04c-1.02-.43-1.98-.25-2.91.28-.17.1-.38.13-.51-.06-.14-.2-.14-.46-.03-.66.17-.3.41-.48.8-.5,1.05-.07,1.95.23,2.76.91ZM136.07,70.94c.03.87.04,1.75.1,2.63.02.35-.1.43-.42.42-.82-.02-1.64-.03-2.45,0-.37.02-.41-.14-.41-.43,0-1.01,0-2.01,0-3.02,0-.13,0-.25,0-.38-.03-.98-.03-.97,1-.98.56,0,1.13.12,1.69,0,.14-.03.33,0,.31-.21-.02-.21-.22-.15-.36-.15-.82,0-1.64,0-2.45,0-.78,0-1.55,0-2.33,0-.26,0-.37.02-.39-.37-.05-1.34-.03-2.67-.08-4.01-.02-.4.11-.46.5-.43,1.5.1,3.01.22,4.52.14.37-.02.51.12.52.54.06,2.08.18,4.16.26,6.24ZM136.36,76.75c.11.28-.2.39-.48.39-.8,0-1.59,0-2.56,0-.77-.04-1.71.08-2.64-.07-.13-.02-.34.05-.25-.27.18-.62.11-1.27.09-1.9-.01-.32.03-.49.43-.49,1.51,0,3.01-.16,4.52-.12.53.01.81.11.78.73-.03.57-.11,1.15.12,1.73ZM131.91,80.05c-.44-.02-.88-.03-1.32,0-.39.03-.71.08-.67-.49.03-.45-.07-.83.65-.81,2.11.06,4.23.02,6.42.02-.37.4-.77.65-.93,1.1-.08.21-.26.16-.42.18-1.24.15-2.48.04-3.72,0ZM134.59,84.87c.1-.33.19-.66.28-.98.04,0,.09.02.13.03.02.34.04.69.06,1.03.01.24-.16.26-.34.24-.23-.02-.18-.17-.14-.32ZM134.47,82.97c.03.57-.26.64-.7.63-.54-.01-1.08,0-1.62,0,0,0,0-.02,0-.03-.62,0-1.25,0-1.87,0-.27,0-.42-.04-.4-.38.04-.75.04-1.51.04-2.26,0-.37.1-.49.51-.48,1.17.05,2.34.05,3.51.02.48-.01.63.15.59.61-.05.63-.1,1.27-.06,1.89ZM133.89,85.21c-1.02.05-2.05.02-3.07.02v-.02c-.94,0-1.89-.05-2.83.02-.68.05-.57-.34-.62-.77-.06-.58.32-.59.67-.56,1.33.1,2.65,0,3.98.05.63.03,1.26.03,1.9.03.25,0,.46,0,.39.36-.07.34.17.87-.4.9ZM119.56,84.43c-.13-.48.09-.58.54-.57,2.14.03,4.28.02,6.43.01.35,0,.48.12.53.45.13.88.14.88-.79.88-.99,0-1.97,0-2.96,0-1.09,0-2.18,0-3.27,0-.28,0-.63.09-.4-.42.04-.09-.05-.23-.08-.35ZM97.33,83.81c1.33-.06,2.65.04,3.97.04,1.65,0,3.3.02,4.95,0,.43,0,.62.09.59.55-.02.39.06.72-.55.7-1.49-.05-2.98-.02-4.46-.02-1.47,0-2.93,0-4.4,0-.35,0-.59-.06-.52-.47.06-.3-.25-.77.43-.8ZM103.54,83.45c-2.28-.01-4.56-.01-6.84,0-.28,0-.35-.11-.36-.37-.03-.84-.06-1.69-.12-2.53-.02-.33.12-.39.4-.37,2.12.12,4.23-.01,6.35.05,1.72.05,3.44.04,5.16.03.33,0,.34.12.34.35,0,.42,0,.84,0,1.26,0,.4-.01.8,0,1.2.01.39-.17.48-.54.47-1.46-.04-2.93-.07-4.39-.08ZM95.05,80.6c0-.29-.01-.45.31-.43.25.02.59-.1.6.34,0,.42,0,.84,0,1.26h.03c0,.36.03.72-.01,1.07-.02.2.24.46,0,.55-.25.1-.61.12-.86.02-.26-.1-.18-.49-.14-.69.16-.71.07-1.42.06-2.13ZM95.45,79.8c-.21,0-.47.09-.44-.31.12-1.68-.06-3.35-.07-5.03,0-3.01-.06-6.02-.12-9.03-.06-3.12-.16-6.23-.25-9.35,0-.27-.08-.53-.15-.79-.3-1.2-.02-1.74,1.18-2.04.44-.11.85-.37,1.33-.32.13.01.25-.07.28-.2.03-.15-.1-.22-.21-.27-.3-.16-.63-.19-.95-.28-2.01-.53-3.62-1.67-4.83-3.37-.18-.25-.31-.64-.65-.63-.36,0-.32.46-.48.7-.12.18-.12.45-.24.63-.1.14.02.53-.31.41-.26-.1-.55-.31-.44-.66.07-.23.07-.45.08-.68.03-.95-.29-1.41-1.23-1.63-1.69-.4-3.39-.43-5.09-.1-.44.09-.8.32-1.18.54-.21.12-.23.23-.23.48,0,.51.17.99.17,1.49,0,.37-.12.55-.49.34.05-.53-.41-1.01-.2-1.57.01-.04-.12-.17-.21-.2-.22-.08-.34.1-.46.25-.62.72-1.27,1.42-1.98,2.06-1.17,1.06-2.5,1.74-4.09,1.85-.23.02-.49.06-.51.34-.02.3.25.43.47.5.66.19,1.33.34,2,.48.9.19,1.31.59.99,1.42-.52,1.39-.29,2.8-.3,4.18-.05,6.57-.03,13.15-.01,19.72,0,.52-.09.69-.67.71-1.48.06-2.96.31-4.43.19-1.35-.11-2.7-.11-4.05-.09-1.41.02-2.82.17-4.23.22-.87.04-.91,0-.86-.84.03-.52-.21-1-.14-1.52.03-.19-.13-.38-.28-.37-.79.03-.59-.62-.56-.95.1-1.36.02-2.71.06-4.06.06-1.64.11-3.27.12-4.91.01-2.38.07-4.76.11-7.14.05-3.18.06-6.37.16-9.55.11-3.74.1-7.48.15-11.22.04-3.1.14-6.2.15-9.3,0-.82.06-1.65.01-2.46-.02-.39.15-.47.38-.59,1.04-.53,2.15-.87,3.22-1.31,1.4-.57,2.79-1.2,4.17-1.82,1.17-.53,2.4-.91,3.59-1.41,1.36-.57,2.67-1.24,4.08-1.71,2.18-.73,4.18-1.87,6.34-2.67.41-.15.82-.28,1.22-.44.23-.09.42-.06.64.04,3,1.38,5.98,2.78,9,4.11,2.87,1.26,5.67,2.66,8.51,4,1.46.69,2.93,1.38,4.39,2.07.08.04.16.12.23.1.9-.21.58.47.59.83.07,3.02.16,6.03.22,9.05.03,1.41.05,2.83.09,4.24.1,3.47.17,6.94.29,10.41.09,2.38.07,4.77.12,7.15.06,2.66.15,5.33.22,7.99.03,1.2.04,2.39.04,3.59,0,1.46.11,2.92.16,4.37.03.79-.33,1.42-.48,2.13-.11.52-.16,1.05-.08,1.56.09.6-.25.71-.66.69-4.4-.18-8.81-.05-13.22-.1ZM94.71,81.54v.42c0,1.56-.14,1.67-1.69,1.49-.31-.04-.36-.2-.37-.46-.02-1.42-.04-2.83-.06-4.25,0-.3.14-.35.39-.34.27.02.54.03.82.04.96.04,1.02.05.91.98-.09.75.09,1.48.02,2.11ZM92.45,74.37c-.03-.6.12-.87.74-.76.12.02.25,0,.38,0,1.02.01,1,.01,1.02,1.05.03.95.13,1.9.13,2.86,0,.49-.2.6-.62.56-.33-.03-.67-.09-.99-.04-.56.09-.62-.26-.63-.65-.02-1.01.02-2.03-.04-3.04ZM86.17,77.21s-.04,0-.06,0c0-1.98,0-3.96,0-5.94-.02-3.54-.05-7.07-.06-10.61,0-.98.02-.98,1-.98,1.44,0,2.89.02,4.33.02.3,0,.45.09.43.43-.08,1.92.09,3.84.12,5.76.06,3.84.08,7.67.21,11.51.06,1.54.02,3.08.13,4.61.02.29-.09.34-.3.33-.92-.05-1.84.05-2.76-.07-.82-.11-1.66-.06-2.49-.03-.45.02-.57-.13-.57-.56.02-1.49,0-2.98,0-4.47ZM86,58.83c-.06-.28,0-.44.32-.44.36.01.71,0,1.07,0,1.34.01,2.67.03,4.01.1.49.03.38.31.41.58.03.36-.17.43-.46.4-1.67-.17-3.34-.12-5.02-.11-.46,0-.28-.32-.33-.54ZM85.14,82.35c-.86,0-1.72,0-2.58,0h0c-.84,0-1.68,0-2.52,0-.7,0-.81-.11-.79-.77.02-.66.06-1.33.06-1.99,0-5.18.01-10.37.02-15.55,0-1.32.02-2.64-.01-3.96-.01-.47.19-.53.59-.52,1.63.06,3.26.1,4.89.12.77,0,.83.03.84.77.11,6.52.14,13.04.12,19.55,0,.56-.02,1.13.06,1.69.08.57-.2.67-.66.66ZM85.81,83.02c.02.34-.12.43-.44.43-1.89-.01-3.77,0-5.66,0-.23,0-.47.02-.46-.34.01-.33.14-.41.47-.4.96.03,1.93.01,2.89.01v-.03c.92,0,1.83,0,2.75,0,.26,0,.43.02.45.35ZM79.31,58.8c0-.29,0-.53.41-.52,1.84.05,3.69.09,5.53.12.4,0,.35.25.37.51.02.29-.05.51-.38.5-.38,0-.75-.03-1.13-.05-1.46-.11-2.93-.13-4.39-.1-.36,0-.42-.16-.41-.46ZM78.27,57.97c-.29,0-.58-.1-.86-.09-.19,0-.2-.08-.21-.21,0-.06,0-.13,0-.19-.06-1.67-.06-1.68,1.6-1.61,4.2.18,8.4.07,12.6.1.74,0,1.47.09,2.21,0,.41-.04.63.09.63.59,0,1.59.02,1.59-1.59,1.57-4.79-.14-9.59-.17-14.38-.18ZM78.97,72.52c0,.45-.22.56-.53.56-.34,0-.67-.03-1.02.03-.32.05-.22-.23-.22-.4,0-1.13,0-2.26,0-3.4h0c0-1.09,0-2.18,0-3.27,0-.37-.01-.68.53-.5.39.13.96-.27,1.18.08.2.32.05.85.05,1.29,0,1.87-.02,3.73.02,5.6ZM77.19,78.24c0-.39.11-.51.49-.5,1.28.02,1.28.01,1.28,1.32,0,.48,0,.97,0,1.45,0,.78,0,1.55,0,2.33,0,.44-.09.71-.61.55-.37-.11-.9.21-1.11-.14-.18-.3-.05-.78-.05-1.18,0-1.28.02-2.56,0-3.84ZM78.96,75.43c0,.52-.01,1.05,0,1.57.01.31-.07.48-.41.45-.35-.03-.7-.03-1.05-.05-.23-.02-.3-.16-.3-.39,0-1.08,0-2.16,0-3.24,0-.23.13-.32.29-.33.44-.02.87.09,1.32-.03.21-.06.15.2.16.33,0,.57,0,1.13,0,1.7ZM78.96,60.84c0,.32-.09.41-.42.42-1.34,0-1.34.02-1.34-1.34,0-.02,0-.04,0-.06q0-1.75,1.76-1.53c0,.84-.01,1.67,0,2.51ZM77.2,64.23c.01-.76,0-1.53,0-2.29,0-.22-.02-.32.32-.35,1.44-.13,1.44-.16,1.44,1.26v.44c0,.38-.05.76,0,1.13.1.63-.27.73-.75.77-1.04.07-1.04.07-1.02-.96ZM81.99,54.53c.05.27-.09.37-.35.36-.46-.01-.92,0-1.38,0,0-.02,0-.04,0-.06-.35,0-.7.01-1.06,0-.24,0-.62.11-.66-.17-.03-.28-.06-.67.23-.91.92-.75,1.56-1.77,2.5-2.5.1-.08.18-.2.32-.13.14.06.13.2.13.33,0,1.04.07,2.07.26,3.1ZM89.21,54.47c0,.33-.1.44-.43.43-2.05-.09-4.1,0-6.14,0-.22,0-.39,0-.41-.32-.06-1.15-.15-2.29-.23-3.44-.02-.27.02-.46.31-.6,1.72-.85,3.49-1.05,5.33-.48.28.09.54.22.79.38.71.43.94,1.08.79,1.71,0,.89-.01,1.61,0,2.33ZM89.29,55.42c0,.3-.27.19-.43.19-1.73-.03-3.45.07-5.18-.06-.29-.02-.61.05-.9,0-.16-.03-.46.12-.45-.13,0-.29.32-.15.49-.15.98-.02,1.97,0,2.95,0,1.04,0,2.08,0,3.12,0,.15,0,.4-.07.4.17ZM85.37,49.44c-1.05.04-2.04.35-3.02.73-.11.04-.25.24-.35.03-.06-.14-.08-.34.13-.42,1.18-.45,2.29-1.05,3.65-.89.66.08,1.29.23,1.94.32.7.09,1.32.75,1.28,1.34-1.09-.8-2.31-1.15-3.64-1.1ZM88.89,49.11c-.06.15-.16.12-.24.08-2.22-1.08-4.41-.9-6.64.22-.01-.19,0-.3-.02-.4-.2-.94.06-1.32,1.01-1.45,1.03-.14,2.06-.28,3.1-.2.8.06,1.62.12,2.36.52.38.21.6.85.45,1.23ZM81.4,50.78c-1.18.78-1.91,2.03-3.04,2.88-.34.26-.19.87-.13,1.29.04.31.48.22.74.23.87.04,1.74.04,2.61.07.14,0,.39-.1.36.18-.01.16-.19.18-.35.17-1.24-.04-2.48-.08-3.72-.11-.28,0-.52,0-.32-.4.03-.05.01-.13,0-.19-.14-.94.01-1.64,1.04-2.09,1.01-.45,1.6-1.48,2.39-2.23.17-.16.32-.33.59-.43.06.26.08.44-.18.61ZM81.09,49.99c-1.08.8-1.73,2.05-2.93,2.75-.59.34-1.12.59-1.81.34-.28-.1-.59-.13-.9-.24,2.22-.63,3.77-2.12,5.13-3.9.25.23.2.65.54.76,0,.1.02.25-.03.29ZM94.36,62.36c.03.41-.11.59-.53.53-.08-.01-.17,0-.25,0-1.66-.05-1.35.34-1.46-1.45-.02-.27,0-.55,0-.82-.01,0-.03,0-.04,0,0-.54.02-1.09,0-1.63-.02-.35.09-.5.45-.46.21.02.42,0,.63,0,1.16,0,1.24.16,1.13,1.37-.07.81.03,1.64.08,2.47ZM92.34,67.54c-.17-1.35-.06-2.7-.14-4.05-.02-.3.07-.43.38-.42.52.02,1.04.02,1.55.02.29,0,.21.21.21.35.01.48,0,.96,0,1.64-.1.97.16,2.12.13,3.29-.01.43-.14.61-.58.59-.48-.03-1.09.17-1.41-.06-.36-.25-.09-.89-.15-1.36ZM94.11,53.67c-.4.63-.34,1.24-.06,1.87-.3.19-.63.06-.95.07-1.05,0-2.1,0-3.14,0-.15,0-.39.08-.38-.18,0-.25.25-.18.4-.17,1,0,2-.05,3,.11.44.07.51-.04.53-.56.03-.92-.53-1.14-1.15-1.42-1.08-.49-1.86-1.37-2.69-2.17-.14-.13-.26-.4-.09-.55.27-.23.26.16.37.25,1.24,1.13,2.4,2.36,4.17,2.76ZM90.46,48.96c1.18,2.02,3,3.18,5.26,3.83-1.55.72-2.55.57-3.71-.51-.39-.36-.82-.69-1.2-1.07-.96-.95-.97-1.03-.35-2.25ZM89.57,54.39c-.01-.87,0-1.74,0-2.75.75.61,1.3,1.25,2.01,1.73.35.23.7.42,1.08.59.16.07.36.09.42.31.18.59.03.72-.58.67-.79-.07-1.59-.07-2.38-.03-.42.02-.54-.18-.54-.52ZM86.61,82.64c1.45-.09,2.89.08,4.34.13.34.01.67-.08,1.03.03.17.05.38-.13.38.23,0,.35-.16.42-.46.41-.88-.01-1.76,0-2.64,0-.88,0-1.76-.02-2.64,0-.36,0-.47-.11-.46-.47.01-.35.13-.32.45-.34ZM92.34,69.77c-.02-.36.08-.55.48-.52.52.05,1.16-.21,1.52.1.35.3.05.95.13,1.44.09.59.09,1.19.13,1.79.04.55-.11.79-.68.69-.14-.03-.29,0-.44,0-.13,0-.26-.02-.38,0-.56.12-.67-.19-.68-.65-.02-.95-.04-1.9-.08-2.84ZM76.16,80.13c0-.53.42-.23.67-.43,0,1.17,0,2.25,0,3.34,0,.22-.08.38-.32.39-.28,0-.35-.18-.35-.42,0-.96,0-1.92,0-2.88ZM75.8,81.68c0,.23,0,.46,0,.69,0,1.06,0,1.09-1.06,1.05-3.02-.12-6.04-.09-9.05-.08-.49,0-.62-.14-.64-.63-.02-.72-.12-1.44-.1-2.16,0-.25.06-.36.35-.39,1.69-.17,3.38-.24,5.08-.14,1.61.09,3.22.03,4.83-.1.51-.04.66.15.61.63-.04.37,0,.75,0,1.13ZM64.28,83.33c-1.33.05-1.33.06-1.33-1.28,0-.35,0-.71,0-1.06q0-.82.81-.82c.81,0,.8,0,.83.83.02.62.07,1.23.12,1.85.03.33-.06.48-.44.49ZM62.6,83.05c.01.22-.14.27-.34.27-1.34,0-2.68,0-3.97,0,0-.92,0-1.79,0-2.67,0-.2-.06-.39.29-.4,1.19-.03,2.38-.03,3.56-.2.23-.03.3.08.35.31.21.89.05,1.8.1,2.69ZM61.57,59.27c.02.35-.15.46-.42.48-.54.04-1.07.03-1.61.05-.27.01-.23-.16-.23-.33,0-.4,0-.8,0-1.2,0-1.5,0-1.47,1.5-1.52.61-.02.81.15.75.76-.06.58-.04,1.18,0,1.76ZM61.18,56.46c-.73,0-1.47,0-2.2,0-.71,0-1.43-.01-2.14,0-.33,0-.44-.1-.44-.43.02-.9.01-1.8,0-2.7,0-.28.03-.41.38-.36.77.11,1.58.21,2.32.16.66-.05,1.33.02,1.99-.07.46-.06.64.09.6.58-.06.81-.08,1.63-.08,2.45,0,.33-.17.38-.43.37ZM56.39,58.71c-.09-.54.09-1.07.02-1.6-.03-.29.13-.36.38-.35.23.01.46,0,.69,0q1.53,0,1.53,1.53c0,1.5,0,1.51-1.49,1.5-.37,0-.85.17-1.08-.09-.17-.19,0-.67-.05-1ZM85.06,15.69c-1.7.82-3.51,1.38-5.26,2.09-.44.18-.89.35-1.32.56-.68.33-.63-.38-.84-.62-.25-.29.17-.34.34-.41,2.25-.9,4.45-1.91,6.76-2.62.25-.08.83-.56.75.35.1.35-.12.51-.43.66ZM85.83,15.84c1.21.55,2.44,1.06,3.62,1.65,1.41.7,2.88,1.26,4.33,1.84,1.04.42,2.02.96,3.05,1.39,1.77.74,3.53,1.48,5.27,2.28,1.92.89,3.98,1.46,5.82,2.54.02.01.04.02.05.03.22.14.64-.21.7.15.09.53.1,1.1,0,1.63-.06.37-.46.2-.68.1-.44-.18-.85-.44-1.28-.65-1.9-.9-3.82-1.74-5.69-2.69-2.01-1.03-4.08-1.94-6.14-2.89-2.91-1.34-5.84-2.64-8.78-3.93-.36-.16-.39-.38-.38-.69,0-.21.04-.43-.2-.55,0,.83-.43,1.2-1.21,1.51-3.43,1.37-6.89,2.7-10.24,4.27-1.53.71-3.16,1.14-4.69,1.85-2.17.99-4.4,1.87-6.6,2.79-.09.04-.19.06-.29.09-.22-.56,0-.85.5-1.08,2.16-1.01,4.35-1.97,6.54-2.91,1.46-.63,2.84-1.45,4.36-1.95,1.93-.63,3.72-1.6,5.59-2.36,1.79-.72,3.59-1.43,5.4-2.11.18-.07.34-.39.6-.15.05-.16.13-.26.32-.17ZM85.84,14.59c.01-.39.15-.46.48-.46.36,0,.68.16.9.37.32.3-.05.57-.18.84-.09.18-.13.39-.19.59-1.07-.34-1.04-.34-1.02-1.34ZM123.71,23.98c.14.03.29,0,.43,0,.88.11,1.77-.02,2.66.06.54.05,1.1.05,1.64-.01.32-.04.44.03.45.32,0,.36,0,.71,0,1.07,0,.28-.17.31-.37.28-1.62-.22-3.25-.09-4.87-.21-.55-.04-.65-.22-.55-.68.03-.12.1-.24.09-.36-.03-.41.1-.59.53-.48ZM130.23,25.92c1.46.03,2.92.13,4.43.1-.13.51-.46.84-.3,1.34.08.25-.26.18-.42.18-1.76-.01-3.52-.06-5.28-.05-4.34,0-8.69.03-13.03.07-.5,0-.64-.12-.63-.62.03-1.21,0-1.23,1.22-1.21,1.62.02,3.23.07,4.85.09,3.05.04,6.11.03,9.16.11ZM134.72,38.83c.02.4-.09.55-.52.54-1.29-.04-2.58-.03-3.86-.06-.25,0-.48-.07-.5-.47-.05-1.16-.1-2.32-.1-3.49,0-.73.25-1.08.88-.85.76.28,1.42-.14,2.12-.04.5.07.99-.03,1.48-.03.33,0,.44.12.43.44-.02.69,0,1.38,0,2.07.02,0,.05,0,.07,0,0,.63-.02,1.25,0,1.88ZM131.48,30.75c0-.38.11-.51.5-.5.62.02,1.24.05,1.86-.1.29-.07.57-.06.57.41,0,.97.05,1.94.12,2.91.04.51-.15.67-.64.62-.25-.03-.5,0-.75,0h0c-.49,0-.99,0-1.48,0-.15,0-.32,0-.27-.22.21-1.04.06-2.08.09-3.12ZM134.38,29.51c.07.26-.12.24-.29.28-.95.23-1.92.07-2.87.11-.42.02-.84-.02-1.26.01-.39.03-.64-.03-.61-.51.04-.68-.74-.92-.88-1.59,2.07-.12,4.12.03,6.15.14.03.55-.39,1-.24,1.55ZM129.49,30.7c.01-.37.14-.45.48-.45,1.13-.02,1.13-.03,1.17,1.11,0,.25,0,.5,0,.75,0,.48.02.97,0,1.45-.03.49-1.03.91-1.41.61-.06-.05-.09-.18-.09-.28-.01-1.06-.18-2.12-.14-3.18ZM115.52,61.38s-.02,0-.02,0c0,.15,0,.29,0,.44,0,1.25,0,1.28-1.23,1.36-1.26.08-2.53.08-3.79.13-.35.01-.52-.04-.51-.46,0-.84-.05-1.69-.11-2.53-.03-.43.13-.53.53-.53,1.22.02,2.45-.05,3.67.04.45.03,1.05-.49,1.34.1.2.41.1.96.13,1.45ZM115.74,73.76h-.02c.03.56.06,1.13.09,1.69.01.23.06.48-.31.47-.82-.02-1.62.18-2.44.13-.28-.02-.47,0-.4-.4.17-1.05.15-2.11.12-3.17,0-.38.11-.52.5-.5.69.03,1.38.02,2.08,0,.3,0,.41.1.4.4-.02.46,0,.92,0,1.38ZM108.82,80.7c0-.34.13-.42.45-.41,1.24.01,2.47,0,3.71,0,1.22,0,2.43.01,3.65,0,.42,0,.58.12.58.56,0,.73.07,1.46.12,2.18.02.38-.09.56-.53.55-1.8-.04-3.6-.06-5.4-.04-.75,0-1.49,0-2.24-.02-.27-.01-.32-.07-.31-.3,0-.84.01-1.68,0-2.52ZM115.64,79.89c-.83-.03-1.67,0-2.51,0,0,.01,0,.02,0,.04-1.01,0-2.01,0-3.02,0-.18,0-.47.06-.48-.22-.01-.37-.08-.75.05-1.11,0-.02.15.02.22.02,1.62-.03,3.23-.18,4.85-.1.36.02.73-.04,1.09-.11.44-.08.56.15.65.51.25,1.04.26,1.02-.86.98ZM115.9,77.98c-.56.03-1.13.02-1.69.02-1.38.01-2.76.26-4.14.16-.13,0-.45.16-.38-.2.04-.19,0-.47.42-.46,1.54,0,3.08-.06,4.62-.09.37,0,.74.03,1.11.02.23,0,.37.11.41.31.05.28-.25.23-.34.24ZM109.97,64.3c-.03-.48.09-.71.61-.63.23.03.46,0,.69,0,1.17,0,1.19,0,1.27,1.23.04.58.04,1.16.04,1.74,0,.28-.06.55-.44.55-.48,0-.95.02-1.43.11-.56.1-.71-.12-.72-.89,0-.7.02-1.41-.01-2.11ZM115.81,76.78c0,.24-.04.3-.35.29-1.52-.03-3.05.03-4.57.06-.27,0-.54,0-.8,0,0-.62.32-.78.87-.73,1.51.14,3.01-.06,4.52-.08.42,0,.33.24.34.46ZM110.17,72.2c-.05-.25.06-.37.33-.34.57.05,1.15.09,1.72.13.25.01.24.18.25.35.02,1.14-.02,2.28-.11,3.41-.02.22-.1.3-.3.29-.04,0-.09,0-.13,0-.56-.13-1.33.35-1.64-.24-.24-.46-.05-1.15-.05-1.73-.06-.62.06-1.25-.06-1.87ZM115.37,71.62c-1.62-.06-3.25.1-4.87-.11-.34-.04-.41-.13-.39-.45.03-.49,0-.98,0-1.48h0c0-.5.03-1.01,0-1.51-.03-.36.18-.46.43-.47,1.55-.07,3.1-.12,4.65-.17.25,0,.44,0,.45.34.02,1.14.07,2.28.12,3.42.01.27-.04.44-.37.42ZM115.02,67.08c-.27-.03-.54,0-.82,0,0,0,0,.01,0,.02-.42-.02-.9.09-1.24-.08-.48-.24,0-.75-.1-1.14-.17-.59-.07-1.2-.09-1.81-.01-.25.08-.33.34-.4.72-.2,1.46.01,2.17-.18.22-.06.21.14.22.28.04.91.06,1.83.13,2.74.04.49-.15.63-.61.58ZM113.13,58.41c.07,1.08.07,1.08-1.03,1.08-.57,0-1.14-.03-1.7,0-.46.03-.57-.15-.56-.58.02-.63,0-1.26-.03-1.89-.02-.28.08-.3.32-.28.42.03.84,0,1.26,0,0,.01,0,.03,0,.04.54,0,1.23-.2,1.59.05.39.28.11,1.01.14,1.55ZM113.49,57.2c.02-.31.09-.43.42-.44,1.46-.06,1.46-.07,1.46,1.41,0,1.35,0,1.33-1.38,1.33-.38,0-.53-.09-.45-.46.13-.62-.1-1.22-.05-1.84ZM114.95,56.46c-.78-.02-1.55,0-2.33,0h0c-.76,0-1.51-.01-2.27.01-.44.01-.61-.18-.6-.59,0-.76.01-1.51,0-2.27,0-.34.14-.43.45-.43,1.55,0,3.1,0,4.65,0,.22,0,.42-.02.43.31.03.85.07,1.69.12,2.54.02.33-.11.44-.44.43ZM109.73,51.52c-.12-1.3-.11-1.3,1.16-1.3.04,0,.08,0,.13,0q1.33,0,1.34,1.35c0,.4.16,1-.04,1.17-.25.21-.79.09-1.21.08-.43-.01-.96.19-1.27-.1-.3-.27-.07-.79-.11-1.2ZM113.65,52.82c-1.21,0-.97.03-.99-1.36q0-1.22,1.21-1.25c.1,0,.21,0,.31-.02q1.07-.15,1.08.93.03,1.69-1.61,1.69ZM114.83,49.79c-.96.12-1.92.15-2.66.12-.82,0-1.43-.02-2.04,0-.37.01-.53-.1-.52-.49.02-.73.03-1.47,0-2.2-.02-.42.18-.48.52-.47,1.12.01,2.24.01,3.37,0,.41,0,.83-.07,1.24-.11.3-.03.4.09.4.39-.01.82-.01,1.63.02,2.45.01.3-.13.29-.33.31ZM109.5,44.21c0-.46.02-.92,0-1.38-.02-.46.22-.63.62-.54.58.12,1.14.12,1.72.06.18-.02.2.05.22.26.13,1.16-.04,2.33.09,3.49.03.29-.16.3-.36.3-.63,0-1.26-.02-1.88,0-.35.01-.37-.23-.37-.44-.02-.59,0-1.17,0-1.76,0,0-.02,0-.02,0ZM114.66,46.28c-.59-.09-1.16.12-1.74.13-.36,0-.46-.12-.47-.47-.03-1.06.12-2.13-.11-3.19-.04-.17,0-.36.24-.34.67.06,1.33-.12,2-.13.33,0,.44.11.43.44-.02.4,0,.8,0,1.26.02.54-.04,1.14.11,1.74.08.33.03.64-.46.56ZM114.56,41.98c-1.52.13-3.05-.05-4.57.06-.32.02-.52-.05-.49-.44.03-.42,0-.83,0-1.25h-.06c0-.06,0-.12,0-.19-.01-1.48-.01-1.55,1.44-1.52,1.18.02,2.34-.13,3.52-.07.37.02.5.1.5.49,0,.82.06,1.64.12,2.46.03.36-.11.44-.46.47ZM109.43,36.72c-.13-.61-.05-1.23-.12-1.84-.05-.45.14-.6.57-.55.25.03.5,0,.75,0,1.19,0,1.19,0,1.26,1.2.04.75.05,1.5.1,2.25.03.38-.13.54-.48.54-.06,0-.13,0-.19,0-.57,0-1.24.18-1.67-.06-.51-.29-.11-1.02-.22-1.55ZM122.76,24.51c-.16.31.18.78-.25.94-.3.11-.66.03-1,.03-.75,0-1.51,0-2.26,0v-.02c-1.33,0-2.66,0-3.99,0-.22,0-.24-.09-.26-.25-.04-.38-.08-.77-.11-1.15-.02-.2.07-.19.26-.18,2.4.04,4.81.06,7.21.07.45,0,.59.18.4.56ZM114.9,37.57c.04.52-.12.73-.65.65-.23-.03-.46,0-.69,0,0-.01,0-.02,0-.03-.42,0-.93.15-1.23-.04-.29-.19.06-.71,0-1.08-.14-.76-.08-1.53-.11-2.29-.01-.32.08-.45.42-.44.58.02,1.16,0,1.74,0,.25,0,.38.05.39.34.02.97.05,1.94.13,2.9ZM114.78,33.58c-.01.31-.12.39-.41.39-.78-.01-1.55,0-2.33,0-.73,0-1.47-.01-2.2,0-.36,0-.53-.08-.53-.49,0-.98.04-1.96-.1-2.93-.05-.33.08-.54.5-.5,1.55.13,3.11-.07,4.66-.05.22,0,.28.01.28.23.01,1.12.17,2.23.13,3.35ZM109.19,28.32c0-.33.12-.45.44-.42.31.02.62,0,.93,0q1.06-.07,1.06.97t-.93.91s-.04,0-.06,0c-1.46,0-1.45,0-1.44-1.46ZM113.43,29.66c-.08,0-.18.03-.25,0-.38-.2-.92.51-1.17-.14-.14-.37-.03-.84-.05-1.26,0-.12-.05-.24-.08-.4.8.04,1.55.08,2.29.02.33-.03.47.1.48.47.04,1.32.05,1.32-1.23,1.32ZM113.34,27.54c-.48,0-.96,0-1.45,0-.75,0-1.51-.01-2.26,0-.31,0-.43-.07-.45-.42-.06-1.42-.08-1.42,1.35-1.42,1.15,0,2.3,0,3.46,0,.33,0,.52.05.55.5.09,1.33.13,1.32-1.21,1.32ZM113.32,25.41c-1.3-.09-2.6-.06-3.9-.05-.7,0-1.35-.17-1.99-.43-.31-.13-.27-.26-.2-.56.24-.97.99-.59,1.58-.52,1.78,0,3.56.01,5.33,0,.32,0,.37.1.39.39.07,1.31.08,1.26-1.21,1.17ZM107.2,23.64c-.09.29-.17.57-.26.84-.06.19-.18.11-.3.05-2.04-.93-4.17-1.65-6.18-2.67-.35-.18-.45-.32-.3-.69.4-.98.58-1.02,1.69-.45,1.34.68,2.71,1.31,4.06,1.98.39.19.75.45,1.14.65.15.08.15.18.14.29ZM77.78,18.61c-1.26.75-2.64,1.17-3.96,1.71-.81.33-1.63.62-2.42.99-.51.24-.47-.21-.61-.41-.14-.19-.36-.4.07-.63.93-.48,1.92-.83,2.89-1.22.93-.37,1.8-.88,2.75-1.21.58-.2.83-.11,1.04.4.05.13.16.24.24.37ZM70.71,21.41c.17.22-.15.28-.3.36-1.95,1.06-4.08,1.7-6.04,2.73-.02,0-.04,0-.06.01-.25.06-.49.45-.7.26-.22-.2-.3-.58-.39-.9-.09-.33.23-.35.42-.44,1.28-.58,2.57-1.15,3.86-1.71.79-.35,1.59-.68,2.39-1.02.06-.02.11-.06.18-.1.38.12.43.54.63.81ZM62.76,25.25c-.61.19-1.25.27-1.79.23-1.34,0-1.51-.21-1.28-1.43.03-.17.04-.27.3-.25.85.09,1.71.15,2.56.14.69,0,.49.58.65.88.17.33-.26.36-.44.42ZM61.74,25.74c.08-.01.2-.02.24.02.37.44.17.96.17,1.45,0,.4-.37.23-.58.26-.14.02-.29,0-.44,0-1.21.09-2.42.04-3.63.08-.45.01-.67-.07-.6-.58.05-.37-.11-.85.07-1.1.19-.26.67,0,1.03-.03,1.25-.08,2.51.1,3.75-.1ZM61.92,29.7c-.32.19-.85.04-1.29.04-1.42.03-1.41.03-1.33-1.39.02-.3.13-.4.4-.41.73-.03,1.45-.05,2.18-.09.25-.01.28.13.27.31-.01.12-.08.24-.1.36-.07.4.19.98-.14,1.18ZM61.93,36.53c.03.31-.17.39-.37.36-1.43-.22-2.88.04-4.31-.18-.38-.06-.51-.14-.5-.51.02-.64.02-1.28.01-1.92,0-.26.14-.32.36-.31.4,0,.8,0,1.2,0v-.04c1.04,0,2.09.01,3.13,0,.47,0,.64.16.59.63-.07.66-.18,1.32-.11,1.98ZM61.93,40.65c0,.33-.06.42-.48.39-1.41-.11-2.83-.14-4.25-.15-.45,0-.57-.13-.55-.57.05-.99.06-1.98.07-2.98,0-.34.23-.29.43-.29.54,0,1.08,0,1.62,0,0,.04,0,.09,0,.13.89,0,1.78.02,2.67,0,.36,0,.49.11.49.46,0,1.01,0,2.01,0,3.02ZM61.81,43.03c0,.34-.03.67,0,1.01.05.45-.08.68-.58.61-.59-.09-1.16.15-1.74.13-.22-.01-.35-.05-.36-.3-.01-.82-.02-1.65-.06-2.47-.02-.49.17-.68.67-.64.5.04,1.01.02,1.51,0,.4-.02.59.12.56.54-.03.38,0,.76,0,1.13ZM58.78,44.66c-.59.27-1.31.13-1.98.07-.3-.03-.28-.45-.25-.66.12-.8.09-1.6.09-2.4,0-.32.09-.48.42-.43.04,0,.08,0,.13,0,.57.02,1.29-.15,1.67.13.26.19.05,1.02.05,1.55-.03.18-.09.35-.07.51.05.43.24,1.09-.06,1.23ZM62.05,33.03c.02.43-.14.54-.54.52-.69-.03-1.38,0-2.23,0-.63.04-1.43-.06-2.21.09-.25.05-.3-.08-.29-.27.04-1,.09-2.01.11-3.01,0-.37.23-.33.46-.32,1.3.05,2.61.15,3.91.12.76-.02.84.32.8.93-.05.65-.04,1.3,0,1.95ZM56.9,28.64c0-.77.11-.86.87-.73.12.02.25.12.36.1.75-.12.94.2.92.92-.02.62-.15.9-.8.73-.1-.03-.21,0-.31,0q-1.02,0-1.02-1.02ZM59.32,25.21c0,.29-.2.27-.39.27-.59,0-1.17,0-1.76,0-.41,0-.66.1-.65.6.01.47-.16.94-.17,1.43-.43-1.17-.79-2.35-1.29-3.48-.13-.29.09-.31.29-.3,1.24.04,2.47.09,3.71.12.29,0,.29.2.3.38,0,.33-.03.66-.04.99ZM56.67,45.23c.38-.3,1.17-.14,1.77-.1.94.07,1.86-.11,2.79-.14.41-.01.61.06.59.54-.04.86,0,1.72-.02,2.58-.01.49-.24.58-.77.63-1.32.12-2.63.03-3.94.09-.42.02-.61-.08-.57-.54.04-.44,0-.88,0-1.41.07-.51-.28-1.32.13-1.65ZM59.43,49.61c0-.29,0-.44.37-.43.51.02,1.03-.04,1.54-.06.23,0,.36.07.35.35-.02.46,0,.92,0,1.38,0,.44-.03.88,0,1.32.04.46-.15.58-.57.55-.48-.03-.96-.01-1.44,0-.26,0-.41-.07-.35-.36.19-.91.09-1.83.1-2.74ZM56.52,49.46c0-.28.08-.31.34-.29.52.04,1.05.05,1.57,0,.54-.04.71.18.65.69-.03.25,0,.5,0,.75,0,0,.02,0,.02,0-.03.46-.12.92-.07,1.37.07.66-.24.77-.8.72-.46-.04-.92-.01-1.38,0-.27,0-.45-.09-.44-.39.04-.95.09-1.9.11-2.86ZM107.16,84.1c-.1-.32.3-.25.54-.25,1.85,0,3.69,0,5.54,0h0c1.83,0,3.65,0,5.48,0,.35,0,.64,0,.49.49-.08.26.28.57.05.77-.24.2-.61.07-.92.08-2.06.02-4.11-.06-6.17-.04-1.48.01-2.98-.1-4.46-.06-.88.02-.44-.66-.54-.99ZM118.27,83.57c-.47.01-.62-.14-.6-.61.03-.72.05-1.45-.06-2.16-.09-.54.13-.54.51-.53,1.17.03,2.34.07,3.52.08,1.56.02,3.12.05,4.67.03.57,0,.77.16.71.74-.05.6-.05,1.22,0,1.82.04.52-.17.63-.64.62-1.36-.03-2.73,0-4.09,0h0c-1.34,0-2.68-.02-4.02.01ZM126.32,80.05c-1.69,0-3.39.07-5.08-.02-1.22-.07-2.43-.06-3.65,0-.3.01-.51-.04-.62-.53-.2-.85,0-1.84-.7-2.56-.06-.07-.1-.19-.09-.29.08-1.21-.04-2.41-.08-3.61-.05-1.27.01-2.54-.06-3.81-.15-2.8-.19-5.59-.23-8.39-.03-1.86.03-3.72-.11-5.57-.14-1.85,0-3.69-.15-5.54-.05-.6-.07-1.23-.07-1.85-.02-2.67-.02-5.33-.15-8-.08-1.76.03-3.52-.11-5.26-.14-1.64.03-3.28-.15-4.91-.03-.24.07-.49.05-.73-.08-1.1-.09-1.09,1.03-1.08,3.64.03,7.27-.19,10.91-.13.52,0,.81.2,1.12.61.87,1.18.93,2.52.97,3.9.07,2.47.25,4.93.25,7.39,0,.93.09,1.86.09,2.8.02,3.39,0,6.77.03,10.16,0,1.52.05,3.04.1,4.56.17,4.96.31,9.93.34,14.9,0,1.05.05,2.12.18,3.18.1.82-.05,1.63-.48,2.41-.31.56-.21,1.26-.13,1.91.04.32-.04.5-.45.49-.92-.04-1.85-.01-2.77-.01ZM133.03,61.19s-.01,0-.02,0c0,.73-.01,1.46,0,2.18,0,.33-.11.49-.43.42-.68-.14-1.37-.09-2.05-.13-.39-.03-.36-.38-.37-.66-.02-1.02-.04-2.04-.05-3.06,0-.41-.25-.91.01-1.2.22-.24.72.01,1.08-.04.48-.07.95-.05,1.43-.06.26,0,.42.01.4.37-.04.73-.01,1.45-.01,2.18ZM127.58,80.41c.54.03,1.08.05,1.62.04.28,0,.35.07.32.36-.04.39-.01.78-.01,1.18,0,0,0,0,0,0,0,.14,0,.29,0,.43q-.05,1.14-1.18,1.14c-.19,0-.38,0-.56,0-.29.02-.4-.1-.4-.4-.02-.79.09-1.58-.11-2.37-.06-.23.02-.4.32-.39ZM132.39,78.29c-.63-.05-1.24.18-1.87.12-.21-.02-.6.17-.58-.25.02-.35.08-.76.64-.72.66.04,1.33.05,2,.03,1.14-.03,2.27.14,3.41.03.59-.06,1.02.14,1.03.92-1.56.02-3.1,0-4.64-.12ZM132.54,73.63c.03.56-.35.56-.64.46-.45-.17-1.21.52-1.36-.41-.22-1.32-.09-2.66-.16-3.99-.02-.33.06-.5.44-.49,2,.08,1.64-.41,1.72,1.62.01.27,0,.54,0,.82,0,.67-.03,1.34.01,2.01ZM135.68,61.44c-.09.57.1,1.24.13,1.93.01.33-.1.44-.43.43-.55-.02-1.09-.02-1.64,0-.34.01-.43-.12-.43-.44,0-.89.16-1.76.12-2.65-.02-.52-.03-1.03-.11-1.55-.05-.36.08-.52.48-.53,1.79-.06,1.82-.04,1.88,1.73,0,.31,0,.63,0,1.07ZM135.58,58.13c-1.46.19-2.86.15-4.26.15-1.22,0-1.22,0-1.27-1.23-.05-1.07-.07-2.13-.13-3.2-.02-.39.08-.61.5-.6,1.5.02,3-.07,4.5.12.17.02.37-.04.41.26.21,1.52.04,3.06.26,4.5ZM135.24,51.33c.02.45.05.9.07,1.36,0,.19.03.39-.28.35-1.48-.2-2.97-.07-4.46-.08-.53,0-.67-.15-.66-.67.03-1.3.02-2.6,0-3.9,0-.37.11-.48.46-.48.73.01,1.47,0,2.2,0h0c.67,0,1.35.02,2.02-.02.39-.02.52.13.53.48.04.99.08,1.97.13,2.96ZM134.95,43.61c-.09,1.17.16,2.33.13,3.5,0,.3-.04.46-.4.44-.71-.03-1.41,0-2.12,0h0c-.71,0-1.43-.02-2.14.01-.38.02-.54-.12-.54-.49,0-1.18.01-2.36,0-3.54,0-.34.14-.42.45-.41,1.42.05,2.85.09,4.28.12.28,0,.37.1.35.37ZM134.84,40.34c-.03.71-.02,1.43,0,2.14,0,.29-.08.41-.39.41-1.43-.01-2.86-.2-4.29-.13-.27.01-.31-.13-.31-.35,0-.42,0-.84,0-1.26,0-.13.02-.25.03-.38.02-1.17.03-1.24,1.17-1.13,1.07.1,2.13.06,3.19.07.48,0,.62.17.61.62ZM136.02,25.57c-.13.15-.37.28-.62.25-1.82-.2-3.64-.08-5.46-.09-.55,0-.78-.14-.69-.69.02-.14.02-.3,0-.44-.08-.5.16-.58.6-.58,2.17.04,4.33.05,6.5.06.35,0,.7,0,1.13,0-.42.65-1.03.98-1.45,1.48ZM131.29,13.71c.03-.18.05-.5.4-.43.32.06.47.29.6.53-.06.31-.3.41-.51.4-.27-.01-.54-.18-.49-.5ZM132.01,21.54c-1.2-.52-.61-1.4-.75-2.1,0-.04,0-.11.01-.12.62-.31.22-.51-.06-.76-.13-.11-.02-.21.14-.24.14-.03.26.17.41,0-.08-.34-.35-.37-.63-.36-.56.02-.91-.27-.94-.79-.03-.52-.24-1.16.52-1.42.29-.1.49-.48.89-.27.09.05.22-.12.09-.25-.14-.14-.1-.31-.11-.47,0-.12.04-.19.17-.21.15-.03.17.06.2.16.15.57.57.86,1.07,1.12.52.27.66,1.23.18,1.72-.51.53-.51,1.08-.41,1.7.15.86.15,1.74.25,2.6.03.31-.08.35-.33.35-.74.02-1.47-.06-2.21-.16.32-.49.82-.49,1.52-.51ZM111.94,11.68c.26.01.45.18.48.57.03.16-.13.34-.33.35-.29,0-.51-.23-.56-.48-.05-.24.16-.45.42-.44ZM111.18,18.23c-.04-.26.37-.05.56-.28-.78-.09-1.38-.36-1.69-1.11-.13-.31-.05-.63.11-.75.55-.41.9-1.15,1.75-1.07.08,0,.18-.09.27-.14-.49-.45-.65-1.15-.43-1.79.04-.1.07-.22.2-.18.1.03.26-.04.27.16,0,.14.07.28.08.43.05.87.43,1.54,1.15,2.04.48.33.6.86.5,1.39-.09.47-.48.75-.94.86-.2.04-.15.09-.16.27-.03.72-.14,1.44-.2,2.16-.03.39-.35.4-.59.42-.24.01-.55.02-.68-.3-.25-.68-.11-1.39-.21-2.09ZM112.63,21.69c-.19,0-.31.02-.43.02-.25,0-.5,0-.83,0,.2-.29.14-.69.49-.74.43-.06.57.32.77.72ZM103.05,20.1c1.41.64,2.83,1.27,4.25,1.9.41.18.86.11,1.28.1,2.46,0,4.92-.11,7.38-.08,2.12.03,4.24.16,6.36.25,1.8.08,3.61.17,5.42.17,1.46,0,2.93,0,4.39.13,1.75.16,3.5.03,5.25.15.35.02.31.17.35.38.07.38-.23.23-.36.24-1.28.02-2.56-.05-3.84-.09-1.82-.07-3.65.02-5.47-.06-2.43-.1-4.87-.07-7.3-.09-1.35,0-2.7.07-4.04-.02-1.63-.12-3.26-.06-4.89-.09-1.17-.02-2.34.05-3.51.05-.75,0-1.29-.53-1.88-.89-1.43-.86-3-1.43-4.47-2.2-.55-.29-1.13-.53-1.69-.8.98.2,1.89.54,2.77.94ZM100.2,20.16c-.11.44-.14,1.09-.58,1.23-.33.11-.81-.21-1.21-.38-1.42-.62-2.84-1.25-4.25-1.89-.12-.06-.35-.07-.22-.34.14-.32.22-.67.35-.99.03-.08.05-.29.26-.19.64.27,1.29.52,1.92.82,1.03.49,2.08.92,3.14,1.3.26.09.64.25.59.45ZM95.8,16.94c.67.23,1.3.6,1.91.98-1.28-.44-2.53-.95-3.72-1.6.67,0,1.21.42,1.81.62ZM94,17.46c-.16.42-.3.81-.44,1.2-.09.24-.23.08-.35.03-1.79-.67-3.54-1.45-5.27-2.26-.86-.41-.84-.4-.43-1.28.21-.45.35-.43.77-.2,1.37.77,2.86,1.3,4.33,1.85.39.14.76.32,1.15.47.12.05.25.06.25.19ZM93.83,16.18s.07.08.1.13c-.81-.03-1.45-.54-2.18-.8-.44-.16-.87-.37-1.31-.55-1.15-.48-2.29-.96-3.44-1.42-.28-.11-.39-.44-.78-.38.18-.21.34-.12.45-.08,2.39,1.03,4.82,1.97,7.16,3.1ZM84.9,2.72c-.01-.24-.04-.39-.33-.42-.59-.06-1.18-.39-1.77,0-.06-.46-.12-.83.61-.54.38.15.87.07,1.31.04.35-.03.44-.57.19-.96-.08-.12-.35-.19-.15-.38.09-.08.23-.24.38-.16.25.13.06.32.03.49-.13.67,0,.84.67.83.46,0,.88.26,1.4-.02.22-.12.18.38.21.72-.34-.28-.69-.23-1.03-.25-.93-.07-.96.04-1.04.96-.17,1.93.24,3.83.13,5.75-.01.22.13.5-.24.72-.13-2.32-.25-4.56-.37-6.8ZM85.14,9.83c.38.01.58.13.59.48.01.36-.22.6-.49.63-.29.03-.58-.16-.59-.56-.02-.41.29-.45.5-.55ZM84.98,11.31c.11-.15.68-.4,1.02.12.31.47.87.75,1.2,1.52-1.41-1.1-2.42.06-3.65.31.28-.82.98-1.3,1.44-1.94ZM53.98,22.69c2.87-.1,5.75-.15,8.62-.28.68-.03,1.26-.5,1.87-.78,1.18-.55,2.39-1.04,3.59-1.55,2.62-1.12,5.28-2.15,7.88-3.32,1.8-.8,3.66-1.44,5.5-2.15,1.31-.51,2.62-1.04,3.95-1.58.11.44-.08.59-.4.76-1.12.58-2.36.8-3.51,1.25-3.46,1.37-6.92,2.73-10.31,4.28-2.59,1.18-5.19,2.32-7.76,3.53-.83.39-1.68.3-2.51.24-2.2-.14-4.39-.07-6.59-.1-.08,0-.17.01-.25,0-.27-.05-.75.15-.75-.23,0-.28.44-.06.67-.07ZM53.87,25.24c-.13-.43-.33-.85-.47-1.28-.06-.17-.18-.47.24-.28.03.01.07-.03.11-.04.57-.1.86.04,1.09.67.48,1.34.9,2.7,1.44,4.03.36.9.08,1.9.13,2.86,0,.18-.02.37-.04.75-.83-2.35-1.8-4.48-2.49-6.71ZM56.3,60.52c0-.38.26-.37.52-.37.76,0,1.51,0,2.27,0,0-.02,0-.05,0-.07.71,0,1.42.03,2.12-.01.25-.01.36,0,.35.26-.04,1.07-.09,2.13-.12,3.2,0,.24-.13.27-.32.27-1.5,0-3.01,0-4.51,0-.31,0-.32-.18-.32-.41,0-.96.01-1.91.01-2.87ZM58.85,66.65c-.21-.25-.07-.79-.08-1.21,0-.04,0-.08,0-.13q0-1.29,1.26-1.21c.06,0,.12.05.18.05.4.06.94-.19,1.17.14.19.27.06.77.06,1.17q0,1.24-1.23,1.24c-.06,0-.13,0-.19,0h0c-.4-.01-1,.14-1.16-.05ZM56.21,66.23c.09-.5.07-.99.06-1.49-.01-.51.49-.83,1.15-.63.34.1.78-.22.95.15.14.29.04.7.04,1.06,0,.06,0,.13,0,.19,0,.21-.04.43,0,.63.15.62-.18.73-.68.71-.31-.01-.64-.04-.94,0-.53.09-.66-.27-.6-.61ZM56.8,67.19c.39.04.8,0,1.35,0,.83.11,1.8-.14,2.78-.13.41,0,.54.12.53.53-.03.85,0,1.7-.02,2.54,0,.2-.05.43-.34.4-1.35-.15-2.71-.03-4.07-.06-.85-.02-.85-.01-.85-.85,0-.61.04-1.22-.01-1.82-.04-.52.17-.65.64-.61ZM61.33,75.05c.01.36-.12.54-.46.44-.54-.15-1.08-.11-1.62-.1-.3,0-.35-.11-.35-.36-.01-1.23.05-2.47-.12-3.69-.06-.43.14-.54.53-.51.5.04,1.02.13,1.49.04.65-.13.62.27.58.63-.07.58-.05,1.15-.06,1.63,0,.71-.02,1.32,0,1.92ZM56.06,74.54c.09-1.13.11-2.26.1-3.39,0-.32.09-.37.39-.33.44.04.88.05,1.32,0,.45-.05.58.15.59.55.03.78.13,1.55.08,2.33-.06.54.24,1.24-.11,1.57-.34.32-1.03.11-1.57.11-.83,0-.86.01-.79-.85ZM56.14,76.44c-.28-.65.08-.66.6-.65,1.33.03,2.66,0,3.99.01.27,0,.64-.11.59.39-.03.32.15.66-.45.73-1.61.2-3.21.31-4.83.05,0-.2.2-.32.1-.54ZM56.57,77.38c1.07.14,2.17.13,3.25-.01.69-.09,1.37-.06,2.06-.05.17,0,.3.06.28.25-.02.23-.04.47-.3.56-.09.03-.21.03-.31.03-2.02.04-4.05-.1-6.08.12-.12.01-.24,0-.37,0,.36-1.02.49-1.03,1.47-.91ZM55.02,79.64c.04-.29.09-.58.11-.87.01-.19.1-.23.28-.23,2.2-.06,4.41.11,6.61-.13.12-.01.18,0,.22.13.27.77-.06,1.25-.87,1.26-.06,0-.13,0-.19,0-1.91.31-3.84-.03-5.75.19-.28.03-.44-.04-.4-.36ZM54.82,82.2c.1-.51.02-1.03.16-1.54.08-.29.14-.37.41-.38.71-.02,1.41.09,2.12-.08.19-.05.38.05.37.35-.01.83.02,1.65.04,2.48,0,.27-.15.3-.36.3-.42,0-.84,0-1.25,0-.17,0-.33,0-.5,0-1.16,0-1.2,0-.98-1.12ZM52.96,83.85c.26-.17.55-.17.85-.17,3.09,0,6.18,0,9.26,0,.47,0,.89-.05.85.63,0,.09.01.3.17.37.19-.03.18-.23.17-.29-.15-.84.43-.7.91-.69,8.46.02,16.91.05,25.37.07,1.42,0,2.85,0,4.27,0,.45,0,.91.11,1.36.07.52-.04.42.28.41.55-.02.29.2.72-.4.71-1.05-.02-2.1,0-3.15,0-1.84-.03-3.68-.1-5.52-.11-4.79-.02-9.58.06-14.36-.03-4.82-.08-9.64-.08-14.47-.11-1.83,0-3.66-.06-5.49-.11-.14,0-.4.27-.45-.08-.04-.28-.08-.59.23-.79ZM46,85.49c1.81-.05,3.62-.2,5.43-.24,2.22-.05,4.43-.04,6.65-.05,3.73,0,7.45,0,11.18,0,1.43,0,2.87.09,4.3.1,3.56.02,7.11,0,10.67.01,3.96.01,7.92.05,11.88.06,3.27.01,6.54-.08,9.8.02,5.18.16,10.36.04,15.54.15,4.29.09,8.58.05,12.87.07.71,0,.92.29.75.98-.05.19-.13.21-.31.19-2.11-.19-4.22-.05-6.33-.08-2.26-.03-4.52-.02-6.78.04-1.65.04-3.29.01-4.94.02-1.46,0-2.93.08-4.4,0-1.1-.07-2.24.06-3.36.06-9.97,0-19.94,0-29.92,0-4.04,0-8.07,0-12.11,0-3.8,0-7.59,0-11.39,0-3.17,0-6.34.04-9.51.06-.71,0-.71,0-.71-.78-.13-.51.13-.62.68-.63ZM135.28,89.4c-1.62.04-3.19-.04-4.76.03-1.22.06-2.44-.03-3.66-.05-.14,0-.28-.04-.24-.2.13-.5-.05-.99-.04-1.48,0-.35.16-.41.43-.41,1.92,0,3.84-.07,5.76.05.51.03,1.03-.08,1.55-.08.89,0,.88,0,.89.92,0,.41-.06.83.08,1.22ZM129.62,92.01c0,.46-.32.41-.61.41-2.5,0-5,0-7.5,0-.21,0-.42,0-.63,0v.03c-2.71,0-5.42,0-8.13,0-2.05,0-4.09-.07-6.14,0-.71.03-1.42-.11-2.12.03-.35.07-.32-.09-.33-.32-.03-.63.07-1.26-.06-1.88-.07-.33.23-.27.37-.26,2.37.15,4.74,0,7.11,0,2.43.02,4.86.06,7.29-.06.88-.04,1.75.09,2.62-.03.34-.05.69.06.62.59-.05.41-.02.84,0,1.26,0,.17-.09.46.17.47.29.02.17-.28.18-.44.02-.45.02-.9,0-1.36-.02-.33.06-.47.43-.5,1.22-.11,2.44-.09,3.67-.09.86,0,1.72.01,2.58,0,.34,0,.5.08.48.45-.03.56-.02,1.13,0,1.69ZM66.11,92.15c.02-.59-.18-1.36.11-1.73.3-.37,1.1-.11,1.68-.12,2.61-.02,5.22-.02,7.83-.04,4.84-.04,9.67-.11,14.51-.15,2-.02,4,0,6.01,0,2.39,0,4.77-.02,7.15-.04.31,0,.4.14.4.41,0,.29,0,.59,0,.88,0,1.26,0,1.21-1.23,1.19-2.25-.04-4.5,0-6.76,0-2.35,0-4.7,0-7.06,0-3.84,0-7.68-.01-11.51,0-1.88.01-3.75.04-5.63.07-1.7.03-3.41.04-5.11.05-.29,0-.44-.07-.4-.39,0-.04,0-.08,0-.13ZM94.26,89.65c-4.91.11-9.83.02-14.74.12-4.87.1-9.74.09-14.62.1-.82,0-.85,0-.78-.82.03-.37.06-.77.02-1.09-.08-.61.23-.57.6-.57,2.5,0,5,0,7.5,0,3.18,0,6.36,0,9.54,0,2.85,0,5.7,0,8.55-.01,1.52,0,3.04,0,4.55-.03.44-.01.5.14.52.52.03.54-.36,1.09.06,1.7.35-.45.27-.91.28-1.36,0-.76.18-.94.9-.94,1.32.01,2.64.04,3.96.04,2.17.01,4.35-.02,6.52.03,2.12.05,4.23-.1,6.35-.01,1.7.07,3.4-.11,5.1-.05,2,.06,4-.13,6,.07.1,0,.2-.07.3-.07,1.26-.08,1.28-.06,1.35,1.17,0,.04,0,.08,0,.13.11.88.01.93-.85.89-1.01-.05-2.02-.01-3.03,0-.63,0-1.27.05-1.9.05-3.47,0-6.93-.07-10.4.02-5.27.13-10.53,0-15.79.13ZM50.83,90.76c-.02-.24-.05-.36.27-.36,2.37.01,4.75.02,7.12,0,1.66-.01,3.33-.08,4.99-.11.71-.01,1.41.01,2.12,0,.35,0,.43.15.42.45-.02.48-.03.97,0,1.45.03.41-.15.48-.52.48-2.33-.01-4.66,0-6.99,0s-4.53,0-6.8,0c-.45,0-.71-.02-.58-.61.09-.41,0-.86-.04-1.29ZM53.95,87.71c.06-.32.14-.33.38-.33,1.83.02,3.67.05,5.5.03.33,0,.35.12.34.35-.03.68-.08,1.35-.1,2.03,0,.27-.15.13-.28.15-.98.14-1.96,0-2.76.05-1.02,0-1.86-.01-2.7,0-.36,0-.49-.11-.46-.47.05-.6-.03-1.2.08-1.81ZM60.43,87.91c0-.33.11-.56.51-.53.4.03.79,0,1.19,0,.36,0,.72.04,1.07,0,.57-.09.66.32.61.66-.06.46-.08.91-.05,1.36.03.42-.2.54-.51.51-.76-.06-1.5,0-2.26.04-.34.02-.6-.08-.56-.54.04-.5,0-1,0-1.5ZM45.25,89.43c.05-.56.06-1.11.07-1.67,0-.25.03-.31.34-.32,1.56-.05,3.11-.06,4.66-.02.85.02,1.7,0,2.55-.04.47-.02.68.07.64.6-.04.6-.23,1.2-.12,1.81.04.24-.14.21-.28.21-.48,0-.96,0-1.45,0-2-.14-4.01-.14-6.02-.11-.36,0-.44-.11-.41-.45ZM47.92,92.93c-.24.81-.08,1.62-.09,2.43,0,.48-.12.6-.58.52-.52-.08-1.05.01-1.57.04-.54.02-.58-.19-.59-.61-.02-1,.23-1.99.13-2.83,0-.66.02-1.17,0-1.67-.02-.36.07-.53.48-.52,1.39.02,2.79.02,4.18,0,.34,0,.5.11.5.47,0,.54,0,1.09.04,1.63.01.21-.09.26-.25.26-.64.02-1.28.07-1.91.04-.24,0-.26.04-.32.23ZM98.11,93.46c-.03.61-.01,1.22,0,1.83,0,.32-.06.44-.46.44-2.43-.02-4.86,0-7.29.01-1.95.01-3.91.07-5.86.08-9.62,0-19.23,0-28.85,0-2.34,0-4.68.01-7.02.05-.39,0-.57-.14-.51-.45.17-.76,0-1.54.13-2.28,4.77,0,9.53,0,14.29,0,2.25,0,4.5,0,6.76,0,1.44,0,2.87-.04,4.31-.05,4.11-.02,8.21-.04,12.32-.05,3.33,0,6.66,0,9.98,0,.56,0,1.12.06,1.66-.03.45-.07.55.05.53.46ZM132.3,95.7c-2.46-.03-4.91-.01-7.37-.01-1.99,0-3.99,0-5.98,0-4.43,0-8.86,0-13.28,0-2.23,0-4.46.04-6.69.05-.31,0-.56-.1-.55-.48,0-.67.02-1.34,0-2.01-.02-.41.31-.29.46-.29.94,0,1.88.06,2.81.05,1.93,0,3.86-.05,5.79-.06,2.58-.01,5.17,0,7.75-.01,5.6-.01,11.2-.01,16.8-.05.61,0,.81.15.78.75-.03.46.01.94.1,1.39.1.53-.05.69-.6.68ZM135.56,94.99c.03.51-.05.81-.66.7-.18-.03-.38,0-.57,0-1.08,0-1.08,0-1.14-1.06-.03-.48.03-.96-.09-1.44-.02-.08-.03-.19.01-.24.71-.73-.06-.52-.36-.53-.82-.03-1.64-.02-2.45,0-.28,0-.4-.05-.37-.39.04-.53.02-1.07-.02-1.6-.03-.43.1-.6.56-.57.71.04,1.42,0,2.13,0,.73,0,1.47.01,2.2,0,.38,0,.5.14.52.52.06,1.54.14,3.08.24,4.62ZM134.83,83.42c0-.93-.02-1.86,0-2.79.01-.37.34-.2.54-.22.19-.02.45-.06.42.28-.09.92.48,1.54,1.04,2.23-.67.14-1.44-.24-2.01.49ZM138.1,82.77c-1,.04-1.81-.76-1.87-1.84-.05-1.02.79-1.94,1.82-1.98,1-.04,1.89.82,1.92,1.87.03,1.01-.84,1.91-1.87,1.95ZM141.12,83.62c-.03-.56-.19-.73-.77-.61-.37.08-.73.14-1.11-.09.52-.47,1.04-.87,1.13-1.64.17-1.48-.75-2.63-2.23-2.62-.37,0-.59-.01-.67-.48-.07-.4-.26-.81-.6-1.11-.26-.22-.19-.54-.2-.84-.06-2.04-.09-4.08-.21-6.11-.15-2.54-.23-5.09-.3-7.63-.01-.57.13-.77.7-.63.63.15,1.27-.06,1.93.02.97.12,1.61.67,2.01,1.37.6,1.02,1.53,1.76,2.08,2.79.25.46.59.87.95,1.39-.69.03-1.29-.27-1.9.11-.45.28-.78.89-.5,1.36.25.44.66.33,1.05.15.76-.35,1.54-.5,2.36-.23.64.21.84.5.78,1.19,0,.06-.02.12-.04.18-.14.44-.08.93.29,1.1.33.15.54-.32.73-.62.21.55.35.59.72.23.64-.64.77-1.22.38-1.81.75.02,1.38.08,1.65.96.14.45.73.17,1.09.36-.09.25-.33.22-.51.29-.68.29-.91.74-.72,1.44.12.45.76.81,1.32.73.58-.08,1.34.49,1.39,1.09.09,1.02.13,2.04.19,3.07.14,2.48.27,4.96.42,7.44.05.76-.06.89-.79.91-3.26.11-6.51.14-9.77.12-.49,0-.91.06-.77-.72.06-.34-.05-.78-.07-1.17ZM143.14,90.11c-.23-.02-.46,0-.69,0-1.02,0-1.03,0-1.07-1.01-.02-.42.09-.87-.02-1.25-.21-.72.31-.63.65-.64.44-.02.88.08,1.33-.04.27-.08.43.05.41.37-.02.29,0,.59,0,.88h0c0,.34-.08.7.02,1,.21.66-.07.76-.62.7ZM145.73,94.58c.38-.06.64.19,1.05.24-.24.19-.41.32-.57.45-.16-.22-.31-.44-.49-.69ZM146.55,98.01s-.23.05-.28,0c-.25-.27-.03-.53.08-.9.11.38.34.61.2.9ZM146.5,96.7c-.35-.86-.09-1.51.65-1.59-.25.54-.78.93-.65,1.59ZM153.66,95.41c-.03-.4-.24-.98-.1-1.69.78.66.2,1.28.1,1.69ZM156.41,94.17c-.17-.16-.69.02-.66-.49.02-.31.21-.56.57-.54.51.03.29.51.43.77.09.16-.05.32-.34.25ZM159.28,90.11c1.03.02,2.05,0,3.08,0,.48,0,1.01-.07,1.08.64.08.87-.3,1.52-.97,1.67-.87.19-1.74.12-2.62.13-1.22.02-1.93.82-1.75,2.04.05.32-.12.6-.18.93-.34-.47-.77-.74-1.37-.83.5-.3.7-.65.49-1.14-.16-.37-.3-.61.2-.94.31-.21.37-.84.48-1.29.28-1.06.48-1.22,1.55-1.2ZM153.51,92.42c.05-1.13,1.07-2.27,2.29-2.26.21.02.42.02.62.07.45.12.96.3,1.03.78.06.42-.32.74-.64,1.07-.6.6-1.38.83-2.1,1.17-.72.33-1.22-.01-1.19-.82ZM153.23,90.41c.33.03.25.26.26.46.04.52-.28.95-.34,1.45-.03.21-.02.45-.09.65-.37-.09-.73-.17-1.08-.25.14-.34.29-.67.43-1.01.13-.32.29-.65.38-.98.07-.27.2-.32.44-.3ZM152.45,90.75c-.31.79-.4,1.72-1.26,2.2-.56.31-.73.2-.72-.42.01-.73,1.07-1.91,1.77-1.98.17-.02.27.07.22.2ZM151.99,90.33c-.65.39-1.17.79-1.63,1.44.05-1.12.48-1.49,1.63-1.44ZM150.56,90.33c-.12.33-.42.56-.44.92-.12-.3-.05-.61-.22-.92h.66ZM144.71,90.42c.57-.03,1.13,0,1.81,0,.68-.03,1.46.03,2.25-.11.78-.13,1.14.25,1.02,1.04-.1.69-.2,1.39-.44,2.06-.27.74-1.3,1.38-2.07,1.25-1.84-.33-3.06-1.35-3.52-3.21-.13-.52.28-.99.95-1.02ZM157.82,86.02c1.43.03,2.87.15,4.31.23.66.04,1.32.09,1.98.15-3.13.14-6.26.14-9.38.22-3.14.08-6.27,0-9.4.15-1.19.06-2.39.02-3.58.07-.39.01-.5-.12-.51-.5,0-.43.21-.46.55-.46,2.89,0,5.77.08,8.66-.04,2.47-.1,4.92.13,7.38.18ZM154.42,85.08c.02.24-.03.3-.23.31-.25,0-.51-.02-.76,0-.37.04-.54-.08-.49-.48.03-.25,0-.5,0-.75-.27-2.83-.25-5.67-.59-8.5-.07-.56-.04-1.13-.06-1.69,0-.09.03-.15.11-.2.35-.19,1.45.39,1.45.79,0,1.92.24,3.83.26,5.75.02,1.59.18,3.18.31,4.77ZM156.25,73.48c-.44.25-.9.43-1.4.49-.31.04-.57-.05-.56-.45,0-.56,0-1.12,0-1.77.65.53,1.31.99,2.01,1.41.17.1.13.23-.04.32ZM157,72.87c-.15.13-.26.13-.44.04-.81-.44-1.55-.96-2.19-1.64-.28-.29-.16-.62.21-.8.99-.51,1.97-.17,2.94.03.33.07.66.06,1.03.17-.31.92-.85,1.61-1.55,2.2ZM157.82,70.22c-.51-.08-1.01-.18-1.52-.28v-.1c.43-.15.84-.35,1.27-.42.42-.07.75-.28,1.03-.55.29-.28.35-.06.39.14.16.78-.38,1.33-1.17,1.21ZM162.63,67.87c-.42.36-.84.69-1.45.74-.74.07-1.41.43-2,1-.19-1.1.21-1.71,1.19-2.08.54-.21.94-.74,1.6-.73.09,0,.17-.12.28-.05.24.14.66.06.74.37.06.27-.15.56-.36.75ZM164.01,66.09c-.96.12-1.9-.17-2.98-.04.88-.77,3.05-1.35,5.7-.91-.88.57-1.77.84-2.72.95ZM167.82,63.93c-.26.68-.75.89-1.41.9-.79,0-1.57-.11-2.37-.03-1.23.12-2.37.46-3.41,1.1-.54.34-1.1.5-1.72.43-.66-.07-1.11-.79-.85-1.39.53-1.22,1.57-1.9,2.7-2.48.06-.03.18-.05.23-.02.54.44,1.08.18,1.59-.03,1.67-.66,3.47-.83,5.14-1.46.36-.13.35.13.37.31.03.29,0,.59,0,.77.04.72-.06,1.3-.28,1.88ZM170.01,60.74c-.74.49-.97,1.36-1.53,2.09-.03-.57,0-1.07-.12-1.55-.08-.34-.03-.6.41-.68.3-.06.57-.23.85-.37.19-.1.3,0,.34.14.04.11.25.24.05.37ZM168.73,60.28c.12-.63.43-.71.94-.48-.25.32-.59.36-.94.48ZM170.33,59.56c-.13.1-.24.12-.4.05-1.01-.45-1.28-.36-1.78.61-.3-.66-.47-1.34-.89-1.9-.16-.21-.06-.31.12-.45,1.25-.99,1.92-2.24,1.82-3.89-.05-.76-.05-1.55.29-2.27.07-.16.15-.34.32-.33.11,0,.23.17.3.29.48.86.96,1.73.28,2.72-.07.1-.1.26.04.32.06.03.19-.06.27-.11.05-.03.08-.1.1-.15.1-.31.29-.67.59-.66.36.02.4.47.52.77.67,1.67-.42,4.11-1.58,5Z"/>
      <path class="cls-1" d="M52.5,61.27c.88-.18,1.52.36,2.19.76.45.27.25.65,0,.95-.35.41-.74.79-1.15,1.22.44.18.8.36.77.91-.03.6-.41.94-.8,1.28-.18.16-.36.02-.52-.07-.57-.31-1.13-.61-1.69-.93-.15-.09-.28-.1-.39.03-.43.54-.57.09-.78-.28.04,1.12-.95.69-1.43,1.07.43-.29.46-.62.2-1.02-.04-.06-.04-.16-.05-.24-.07-.77-.28-1.4-1.06-1.83-.6-.33-1.03-.94-1.55-1.42-.08-.07-.15-.11-.15-.24.05-1.47.43-2.84,1.28-4.05.37-.53.97-.71,1.56-.87.35-.1.71-.06,1.06-.26.16-.09.55.15.81.3.72.41,1.46.8,2.11,1.33.67.55.69,1.47.05,2.04-.17.15-.18.32-.17.51.02.31-.07.58-.26.82-.34.08-.66,0-1.1-.15.15.17.21.23.26.29q.46.56.8-.1s.02-.04.03-.06ZM48.54,61.16q1.27-.14,1.12-1.38c-.03-.23,0-.46-.03-.69-.04-.27-.17-.4-.47-.29-.43.16-.87.26-1.29.44-.72.31-1.4.66-1.39,1.62,0,.44.03.81.58.85.57.04,1.15-.35,1.18-.82.03-.43.22-.66.71-.73-.12.39-.51.6-.4.99ZM51.35,61.01c-.17-.25-.58-.4-.48-.69.11-.33.52-.25.81-.3.18-.03.37-.07.55-.1.13-.02.22-.03.21-.22-.01-1-.32-1.3-1.34-1.3-.23,0-.45.1-.67.1-.47,0-.54.24-.41.6.17.48.3.94.09,1.45-.07.16,0,.32.24.34.32.02.64.08.99.12ZM46.65,59.58c.5-.4,1.1-.69,1.68-.76,1.07-.14,1.37-.7,1.28-1.66,0-.04,0-.08,0-.12.02-.22-.09-.32-.3-.26-.75.2-1.53.31-1.95,1.14-.27.53-.51,1.08-.72,1.66ZM53.15,64.23c.49-.55.9-1.01,1.32-1.45.23-.24.21-.47-.06-.61-.39-.2-.73-.48-1.14-.64-.41-.16-.61-.04-.79.33-.19.37-.03.65.18.9.34.4.49.86.5,1.48ZM51.44,63.53c.8-.94.59-1.86-.48-2.27-.33-.13-.84-.18-.81.31.04.62-.12,1.22-.06,1.84.03.28.08.44.39.4.28-.03.6.02.6-.44,0-.51-.16-.98-.31-1.45-.05-.14-.24-.33,0-.42.2-.08.25.19.31.31.26.52.35,1.09.35,1.72ZM49.97,57.81c-.05.35,0,.53.43.38.27-.1.57-.06.86-.11.79-.13,1.13.16,1.36.91.06.21-.03.63.25.6.39-.04.23-.46.26-.73.03-.21-.08-.34-.2-.5-.52-.62-1.27-.91-1.9-1.36-.6-.43-.79-.34-.99.37-.04.14-.05.28-.08.43ZM51.87,65.21c.01.07.03.13.04.2.28.16.57.32.85.47.25.14.49.35.78.06.3-.29.51-.61.44-1.05-.05-.3-.33-.34-.56-.44-.12-.05-.24-.07-.29.11-.17.61-.5.96-1.27.64ZM49.65,63.67c-.1-.79-.14-1.44-.09-2.1.02-.22-.08-.28-.3-.27-.56.02-.71.22-.67.79.04.69.48,1.08,1.06,1.58ZM52.23,62.75c0,.6,0,1.07,0,1.54,0,.13,0,.25,0,.38,0,.15.01.32.18.36.21.04.26-.14.33-.3.26-.63.1-1.37-.51-1.98ZM51.25,60.45c.22.22.41.41.66.51.19.07.38.07.5-.11.11-.16.09-.37.04-.54-.09-.29-.27-.01-.4-.03-.27-.04-.53.03-.8.18ZM49.78,65.48c.33-.83-.05-1.55-.81-1.53.31.49.65.95.81,1.53ZM48.3,63.17c.01-.57-.42-.93-1.24-1.04.34.45.75.78,1.24,1.04ZM51.67,65.02c.28-.43.19-.9.19-1.38-.51.29-.55.72-.19,1.38ZM50.64,64.04c-.07.16-.4-.11-.38.19.01.25.25.45.5.47.28.02.28-.29.3-.46.03-.25-.22-.17-.41-.2ZM49.1,64.69c-.02.26-.09.55.08.78.07.09.16.23.29.16.12-.07.1-.22.04-.33-.13-.21-.27-.41-.41-.61Z"/>
      <path class="cls-1" d="M44.31,67.7c-.6.01-.8-.53-1.14-.86-.78-.74-1.68-1.52-1.79-2.61-.12-1.22-.92-1.65-1.77-2.16-.53-.32-1.02-.69-.82-1.44,0-.02,0-.04,0-.06.08-.29.42-.64.24-.85-.24-.28-.65-.45-1.03-.57-.46-.15-.89-.36-1.31-.57-.33-.17-.64-.42-.52-.81.14-.44.55-.43.95-.36.69.12,1.2.54,1.71,1.12.1-.44.24-.8.18-1.19-.14-.83.2-1.44.93-1.61.72-.17,1.47.28,1.69,1,.32,1.07.54,1.21,1.7,1.04.79-.12,1.51.39,1.53,1.16,0,.39.11.78.09,1.17-.01.46.19.8.45,1.15-.41-.07-.56-.36-.61-.74-.07-.54-.12-1.08-.23-1.61-.13-.61-.49-.96-1.16-.87-.17.02-.34,0-.5,0-.91,0-.92-.01-1.06.89-.1.65-.11,1.3-.67,1.81-.22.2.09.58.24.82.34.56.87.59,1.4.19.25-.19.49-.56.84-.37.35.19.37.63.37.99,0,.31.01.63-.2.93-.24.33.18.53.34.68.35.33.72.62.95,1.06.13.25.39.25.65.28.7.07,1.4.16,2.1.23.23.02.4.1.5.39-.95-.26-1.9-.11-2.83-.22-.28-.03-.55-.11-.7-.33-.47-.69-1.11-1.21-1.71-1.77-.22-.2-.16-.61-.51-.79-.26-.14-.46-.19-.74-.05-.3.15-.35.35-.34.65,0,1.16.7,1.96,1.41,2.77.46.51,1.03.92,1.39,1.51h.01ZM40.55,56.08c-.9.67-1.29,1.36-1.02,2.53.18.81.69,1.2,1.13,1.73.11.13.23.26.41.07.16-.17.35-.36.28-.59-.08-.28-.28-.04-.4.01-.21.09-.33-.03-.42-.15-.13-.16-.05-.34.11-.41.3-.14.25-.39.26-.64,0-.19-.04-.44.07-.54.48-.48.13-.92-.06-1.33-.09-.21-.21-.44-.36-.68ZM41.12,62.59c.06-.51-.02-.85-.42-1.1-.4-.25-.7-.63-.93-1.05-.11-.18-.2-.36-.44-.38-.11.44-.58.9-.14,1.32.54.52,1.14,1.01,1.93,1.2ZM39.18,59.45c-.56-.9-1.14-1.51-2.05-1.75-.27-.07-.53-.1-.65.15-.12.26.13.38.34.51.7.45,1.53.58,2.36,1.09ZM43.7,62.42c-.08-.26.09-.75-.28-.73-.29.02-.56.42-.85.66.29.23.54.59.86.65.34.07.2-.35.26-.58Z"/>
      <path class="cls-1" d="M44.3,67.72c1.61.42,2.5,1.81,2.03,3.2-.28.83-.83,1.14-1.68.66-1.07-.61-2.24-1.04-3.2-1.83-1.24-1-2.71-1.52-4.15-2.1-.74-.3-1.32-.85-1.56-1.63-.25-.83-.83-1.08-1.61-1.07-.74.01-1.42-.25-2.1-.51,1.03.16,2.05.3,3.07.48.42.07.61.44.73.8.35,1.06,1.16,1.65,2.14,1.96,1.45.45,2.73,1.17,3.96,2.06.99.71,2.11,1.25,3.24,1.75.32.14.52,0,.69-.21.6-.79.39-1.89-.37-2.53-.39-.33-1-.44-1.16-1.04h-.01Z"/>
      <path class="cls-1" d="M31.75,64.42c-1.89-.7-3.81-1.21-5.8-1.47,2.05.02,3.98.55,5.8,1.47Z"/>
      <path class="cls-1" d="M85.45,30.43c1.59,0,3.19-.02,4.78,0,1.04.02,1.05.06,1.09,1.06.05,1.39.05,2.77.12,4.16.16,3.16.16,6.33.24,9.49,0,.17.09.36-.09.45-.18.09-.21-.16-.31-.21-.4-.22-.86-.09-1.28-.07-3.03.15-6.05.09-9.08.1-.15,0-.29-.03-.44-.03-.45.03-.64-.16-.63-.63.04-1.98-.11-3.96-.02-5.95.05-1.04-.07-2.08-.05-3.12.04-1.63.13-3.26.2-4.88.02-.4.27-.45.61-.45,1.62.01,3.23,0,4.85,0,0,.02,0,.03,0,.05ZM85.67,30.69c-1.47,0-2.94,0-4.41,0-1.04,0-1.04,0-1.04,1.04,0,.1,0,.21,0,.31-.02.22.1.28.3.29.64.03,1.27.11,1.91.11,2.52.01,5.04,0,7.56,0,1.22,0,1.18,0,1.04-1.24-.05-.48-.22-.54-.64-.53-1.57.02-3.15,0-4.72,0ZM84.02,43.37c-1.19.05-2.37.26-3.55.27-.08,0-.22,0-.23.04-.16.38-.07.79-.05,1.17.02.25.36.28.62.28,3.35-.03,6.71-.06,10.06-.08.29,0,.5-.11.5-.42,0-.31-.04-.62-.06-.93,0-.12-.04-.21-.18-.19-.79.11-1.56-.15-2.34-.15-1.59.01-3.18,0-4.78,0ZM81.49,36.39c-.43.08-.72.17-1.02.17-.33,0-.38.14-.37.42.02.79.02,1.58.02,2.37,0,.1-.04.25.1.24.39-.02.81,0,1.15-.15.24-.1.22-.5.2-.78-.05-.76-.04-1.54-.04-2.29,0-1.06.05-2.12.07-3.19,0-.4-.1-.53-.49-.49-.39.04-.95-.2-.98.49-.04.89-.02,1.78-.04,2.67,0,.28.1.37.37.36.29-.01.6-.08,1.02.18ZM91.07,34.48c0-.19,0-.38,0-.57,0-.37.12-.82-.05-1.09-.21-.33-.66.12-1.01-.02-.04-.01-.08,0-.12,0-.36-.05-.46.12-.46.47,0,.85.17,1.69.01,2.54-.03.16.03.29.18.36.43.2.92.18,1.33.09.29-.06.09-.55.11-.85.03-.31,0-.63,0-.94ZM89.56,38.07c0,.42,0,.84,0,1.26,0,.21.07.54.26.48.37-.12.69.04,1.03.05.29.01.36-.11.35-.37-.03-.88-.08-1.76-.08-2.64,0-.22-.07-.26-.23-.27q-1.33-.08-1.33,1.3c0,.06,0,.13,0,.19ZM89.59,42.17c-.02,1.17.08,1.09,1.02,1.08.08,0,.17-.01.25,0,.41.07.5-.13.47-.49-.06-.79-.1-1.58-.13-2.37-.01-.42-.32-.26-.49-.24-.38.04-.8-.26-1.14.13-.03.03.02.12.02.18,0,.57,0,1.14,0,1.72ZM81.5,41.49c0-.28,0-.49,0-.7,0-.99,0-.97-1-.85-.32.04-.42.15-.4.46.04.79.05,1.58.07,2.36,0,.2-.06.47.24.47.39,0,.79.11,1.17-.08.03-.02.04-.13.02-.18-.21-.51-.04-1.04-.1-1.48ZM86.05,39.63s0,0,0,0c0-.5,0-1,0-1.5,0-.2-.04-.46-.27-.33-.25.14-.76-.27-.76.33-.01,1,.01,2-.01,3,0,.4.23.37.49.36.25,0,.57.11.55-.36-.02-.5,0-1,0-1.5ZM81.86,33.72q0,.97,1.06.97c.73,0,.81-.11.82-1.05,0-.52-.04-.89-.76-.85-1.12.07-1.13.02-1.13.93ZM87.44,33.9c0-1.25.09-1.08-1.04-1.09-.13,0-.25,0-.38,0-.17,0-.25.08-.29.26-.13.6.05.96.62,1.15.15.05.2.16.24.26.08.19.22.21.4.22.76.04.32-.55.46-.79ZM81.86,35.81c.02.3.09.59.05.86-.03.25.05.24.23.21.33-.07.74-.03.65-.59-.03-.18.15-.29.33-.19.2.11.43.23.48-.06.05-.31.19-.79-.09-.93-.45-.23-1.03-.28-1.52-.13-.2.06-.11.55-.13.82ZM89.08,33.77c-.02-1.05.24-1-.98-.97-.35,0-.41.14-.38.43.04.39.06.77.08,1.16,0,.1,0,.26.11.27.35.03.72.08,1.05,0,.22-.05.09-.37.12-.56.01-.1,0-.21,0-.31ZM89.2,38.06c0-.89-.13-1.04-.75-.94-.18.03-.85,1.09-.8,1.28.04.13-.04.35.15.37.43.04.89.11,1.29,0,.24-.07.06-.49.11-.71ZM89.13,35.8c-.09-.18.22-.6-.18-.72-.34-.1-.86-.19-1.07.06-.19.22-.24.86-.08,1.02.21.21.29.6.66.65.61.08.65.02.66-1.01ZM84.38,43.12h0c.23,0,.46,0,.69,0,.12,0,.23,0,.3-.16.26-.63-.06-1.12-.74-1.11-.25,0-.5.05-.75.07-.09,0-.23-.07-.24.1-.03.35-.07.71-.03,1.06,0,.04.47.04.72.05.02,0,.04,0,.06,0ZM84.03,34.67c.25-.02.65.18.69-.12.04-.37.21-.33.43-.34.11,0,.22-.02.22-.16,0-.39.09-.82-.04-1.17-.07-.19-.54-.03-.83-.07-.38-.05-.49.18-.45.48.07.45,0,.9-.03,1.38ZM81.91,38.88c.29,0,.56-.02.83,0,.41.04.48-.13.55-.52.11-.61-.58-.73-.64-1.21,0-.04-.43-.06-.65-.02-.26.05-.09.26-.09.41,0,.45,0,.9,0,1.34ZM88.54,41.72c-.89,0-1.02.16-.86,1.05.03.15.05.29.25.28.36,0,.73,0,1.09-.03.1,0,.23-.01.29-.17.26-.67-.05-1.13-.77-1.13ZM87.35,42.41c0-.31.2-.73-.44-.7-1.07.05-1.15.1-1.19.73-.03.54.21.77.67.66.38-.09,1.17.26.95-.69ZM85.04,35.37c.02.26-.18.63.05.77.29.17.69.17,1.02,0,.18-.1.25-1.53.11-1.63-.03-.02-.08-.01-.12-.02-.73-.1-1.06.17-1.06.88ZM83.23,42.53c-.08-.18.3-.71-.42-.68-.92.04-.92.04-.96.87-.04.83.54.45.9.53.54.11.58-.21.48-.72ZM84.63,40.57c-.12-.15.24-.49-.06-.68-.23-.15-.64-.29-.8-.08-.34.42-.09.97-.14,1.47-.01.13-.04.31.17.33.06,0,.13,0,.19,0,.77.08.7-.44.64-1.04ZM83.62,38.35c0,.17,0,.23,0,.29,0,.7.13.87.8.8.49-.05.15-.5.23-.76.05-.17.01-.37.01-.56,0-.22-.08-.28-.32-.34-.64-.15-.84.05-.71.56ZM89.22,40.24c-.07-1.12-.07-1.1-.95-1.13-.46-.01-.6.1-.61.58-.01.57.28.43.61.42.3,0,.61-.04.95.12ZM82.55,41.6c.41.04.71.07.73-.53.03-.68-.35-.6-.77-.62-.42-.02-.68.01-.68.58,0,.62.29.63.71.57ZM88.38,40.46c-.3.03-.81-.15-.76.57.06.77.55.32.88.34.19.01.37,0,.56,0,.28,0,.27-.21.25-.4-.02-.18.1-.45-.23-.49-.21-.02-.41-.02-.71-.04ZM86.41,40.59c0,.12,0,.25,0,.37.02.22-.12.53.31.53.35,0,.56-.12.53-.51-.01-.19-.03-.39.02-.56.2-.61-.24-.59-.6-.64-.52-.08-.18.33-.26.5-.04.08,0,.2,0,.31ZM87.35,38.26c0-.21.01-.48-.46-.45-.44.03-.47.28-.48.6,0,.23-.02.46,0,.69.03.48.46.3.71.37.31.08.24-.26.21-.37-.09-.26.09-.49.02-.83ZM82.5,39.24c-.12.2-.65-.31-.63.38.01.53.25.66.72.61.33-.04.7.1.7-.5,0-.61-.37-.47-.78-.48ZM83.94,36.57c-.09,0-.13,0-.17-.01-.34-.06-.63-.12-.65.41-.02.5.21.55.59.51.14-.01.29,0,.44,0,.46-.01.7-.37.48-.76-.17-.3-.49-.08-.69-.14ZM87.85,36.53c-.42.29-1.05-.39-1.3.37-.1.31-.11.69.47.68.68-.01.76-.07.83-1.05ZM85.1,37.06c-.11.27-.2.48.26.44.36-.03.79.15.8-.45,0-.25.02-.58-.35-.46-.26.08-.92-.32-.71.47ZM87.41,35.69c.04-.36.12-.64-.36-.65-.48-.01-.42.29-.4.57.02.28-.18.68.41.67.58-.01.31-.4.35-.59ZM84,35.57c-.02.37-.09.68.4.65.26-.02.42-.08.34-.34-.1-.28.17-.75-.38-.82-.53-.06-.32.35-.36.51Z"/>
      <path class="cls-1" d="M128.68,39.42c.13,1.98.03,3.96.21,5.94.06.68-.19,1.32-.1,1.99.03.24-.21.31-.45.32-1.05.03-2.09.1-3.14.11-1.17,0-2.33.19-3.51.14-.48-.02-.6-.18-.62-.63-.14-2.54-.32-5.07-.46-7.6-.09-1.66-.1-3.33-.21-5-.07-1.08.08-2.05.79-2.9,1.47-1.76,4.19-1.82,5.75-.4.22.19.45.36.66.57.64.64.83,1.4.83,2.32,0,1.71.16,3.42.25,5.13ZM127.62,42.85c-.12-.85-.15-1.7-.21-2.55-.03-.45-.26-.45-.52-.43-.28.02-.54.11-.85.05-.3-.06-.45.21-.26.46.39.52.31,1.11.33,1.69.02.49.07.97.35,1.42.23.35.86.59.68,1.02-.23.52-.88.14-1.32.26-.41.11-.98-.21-1.2.45-.04.13-.25.07-.29-.06-.09-.37-.34-.29-.62-.29-.51,0-1.02-.06-1.54-.11-.22-.02-.53-.15-.27-.36.75-.61.69-1.42.68-2.23,0-.67.14-1.3.48-1.89.05-.09.24-.15.11-.29-.08-.08-.19-.15-.34-.1-.44.16-.91.09-1.34,0-.45-.08-.42.11-.42.42,0,.4.09.78.11,1.17.1,1.77.17,3.54.25,5.31.04.75.09.8.85.76,1.63-.08,3.27-.18,4.9-.23.38-.01.44-.16.43-.48-.02-1.33,0-2.66,0-3.98ZM125.85,39.6c.38-.14.82-.12,1.25-.11.35,0,.26-.25.27-.44.01-.22-.03-.37-.31-.33-.1.02-.2-.01-.31-.01-.39,0-.67-.2-.84-.52-.2-.38.12-.57.35-.77.12-.1.2-.14.12-.34-.27-.68-.19-.8.53-.98.16-.04.35.02.33-.25-.01-.25-.19-.2-.35-.25-.39-.11-.88,0-1.1-.47-.19-.39-.48-.47-.87-.44-.44.03-.88,0-1.32,0-.14,0-.3-.06-.4.1-.22.34-.5.49-.93.42-.25-.04-.46.23-.54.45-.09.25.22.15.34.25.13.11.35.21.26.38-.31.61-.2,1.1.09,1.72.26.55-.08.79-.93.86-.22.02-.48-.06-.48.32,0,.41.29.26.49.28,1.43.14,2.88-.15,4.34.12ZM120.69,34.24c.03.27.02.55.1.8.04.14-.15.43.18.44.22,0,.45.07.6-.21.17-.32.47-.47.84-.43.17.02.3-.04.38-.16.45-.64,1.09-.48,1.7-.38.61.09,1.32-.11,1.65.7.13.31.51.32.83.32.23,0,.31-.13.27-.32-.13-.72-.31-1.44-.88-1.95-1-.88-2.15-1.34-3.49-1-1.4.36-2.24.89-2.19,2.2ZM121.61,32.03c2.01-.55,2.02-.58,3.3-.24,1.76.46,2.51,1.76,2.7,3.29.1.84.08,1.7.12,2.55.13,2.96.18,5.93.27,8.9,0,.26-.15.72.27.71.3-.01.2-.48.2-.72-.06-2.61-.19-5.21-.21-7.82,0-1.64-.17-3.26-.14-4.9,0-.28-.09-.54-.23-.77-.78-1.28-1.87-2.09-3.38-2.3-1.03-.15-2.42.48-2.89,1.31ZM122.52,44.4c1.29,0,2.46,0,3.63,0,.13,0,.34.08.38-.1.02-.11-.07-.28-.16-.38-.52-.56-.69-1.22-.63-1.96.04-.46-.03-.89-.25-1.31-.2-.39-.42-.72-.89-.78-.53-.07-.89.23-1.16.61-.19.26-.33.56-.37.91-.12,1,.11,2.05-.54,3.03ZM121.32,37.28c.83-.88.81-.84,0-1.29-.56-.31-.52.02-.48.36.06.53.12,1.06.12,1.59,0,.83.05.86.84.61.39-.12.46-.37.27-.72-.16-.3-.52-.34-.74-.55ZM127.13,37.31c-.28.19-.5.35-.72.49-.11.07-.25.13-.12.27.23.25.54.29.86.25.34-.04.22-.31.22-.49-.01-.35-.06-.7-.12-1.05-.02-.11.1-.34-.18-.29-.14.02-.32.02-.41.1-.16.15.05.25.12.36.08.12.2.2.35.34Z"/>
      <path class="cls-1" d="M159.76,50.93c.55.87.22,1.74-.13,2.53-.52,1.17-1.34,2.14-2.37,2.92-.12.09-.24.15-.4.14.57-.61,1.26-1.08,1.78-1.74.89-1.13,1.36-2.38,1.12-3.84Z"/>
      <path class="cls-1" d="M158.24,48.04c.8.82,1.38,1.76,1.53,2.92-.51-.97-1.02-1.95-1.53-2.92Z"/>
      <path class="cls-1" d="M80.24,79.38c-.03-1.9,0-3.58-.12-5.27-.06-.97-.01-.97.93-.98.86,0,1.72-.03,2.58-.04.38,0,.58.17.6.55.02.5.06,1,.07,1.5,0,1.93-.01,3.86.01,5.8,0,.52-.2.74-.69.74-.95,0-1.89-.02-2.84,0-.35,0-.4-.19-.46-.46-.16-.68-.04-1.37-.08-1.85ZM80.59,77.75c0,1.05-.01,2.09.02,3.14,0,.12-.15.44.26.43.84-.03,1.68-.03,2.52.02.47.02.63-.11.61-.59-.06-1.09-.14-2.18-.08-3.26.07-1.25,0-2.48-.04-3.73,0-.24-.08-.34-.32-.31-.88.12-1.76.04-2.64.04-.35,0-.5.09-.45.46.18,1.26.09,2.53.12,3.8Z"/>
      <path class="cls-1" d="M84.22,68.83c0,1-.04,2.01.01,3,.03.62-.29.76-.78.75-.92-.02-1.83-.09-2.75-.11-.46,0-.59-.19-.6-.65-.02-1.55.23-3.09.09-4.63-.07-.71-.06-1.41-.09-2.11-.01-.34.12-.55.48-.47.94.2,1.88.07,2.82.1.79.02.86.04.88.85.03,1.09,0,2.18,0,3.28-.02,0-.05,0-.07,0ZM83.86,67.6c.11-.66.07-1.32.03-1.98-.03-.51-.22-.57-.65-.56-.72.03-1.47.12-2.17-.05-.58-.14-.64.08-.61.55.06.83.09,1.66.13,2.49.05,1.18-.06,2.36-.13,3.54-.02.41.09.63.52.64.81,0,1.63.02,2.44.02.28,0,.45-.06.45-.43-.03-1.4-.01-2.81-.01-4.22Z"/>
      <path class="cls-1" d="M82.37,63.37c-.63,0-1.27,0-1.9,0-.18,0-.34-.1-.28-.3.2-.73.16-1.47.16-2.21,0-.23.07-.34.32-.33,1.14.04,2.27-.19,3.41-.13.33.02.45.01.38.45-.11.65-.06,1.33-.05,2,0,.34-.09.47-.45.48-.53,0-1.06.09-1.59.14,0-.03,0-.06,0-.09ZM82.31,62.95q1.85,0,1.79-1.77c0-.06,0-.13,0-.19.01-.17-.08-.22-.22-.22-.97,0-1.94.03-2.9.02-.2,0-.25.05-.26.24-.03.47-.07.94-.12,1.41-.04.37.06.54.47.51.42-.03.84,0,1.26,0Z"/>
      <path class="cls-1" d="M87.01,76.82c0-1.07.02-2.14,0-3.21,0-.36.06-.52.44-.45,1.04.2,2.11.04,3.16.15.45.05.59.17.61.67.08,2.23-.08,4.46-.02,6.69,0,.08,0,.17,0,.25.04.72-.07.9-.74.86-.97-.07-1.93-.09-2.9-.09-.35,0-.39-.19-.43-.47-.18-1.46-.1-2.93-.12-4.39ZM87.38,77.22h0c0,1.15,0,2.3,0,3.46,0,.49.18.68.7.66.83-.03,1.67.03,2.5.08.29.02.26-.13.25-.3,0-.51-.03-1.02-.03-1.53,0-1.82.03-3.65.04-5.47,0-.28.03-.43-.4-.47-.89-.07-1.8.09-2.68-.14-.37-.09-.39.16-.38.45.01,1.09,0,2.18,0,3.26Z"/>
      <path class="cls-1" d="M86.89,69.64c-.1-1.27.22-2.89.13-4.52-.02-.34.21-.29.35-.27,1.1.16,2.21.06,3.31.12.28.02.59.03.36.52-.13.27.03.67.03,1.01,0,1.47.02,2.93,0,4.4,0,.4.12.78.13,1.17.01.38-.07.59-.51.58-1.16-.03-2.32-.02-3.48-.04-.26,0-.36-.09-.34-.42.06-.73.02-1.46.02-2.56ZM90.75,68.85c-.05-1.05-.11-2.11-.14-3.16,0-.25-.05-.4-.34-.37-.63.06-1.25-.09-1.87-.11-.86-.04-.86-.03-.96.85-.03.25-.05.5-.05.75-.03,1.7-.05,3.4-.09,5.1,0,.35.1.46.45.46.86,0,1.72-.03,2.57.06.5.05.6-.1.53-.51-.17-1.01-.11-2.03-.09-3.05Z"/>
      <path class="cls-1" d="M90.83,61.78c.02.26-.07.57-.03.91.12.87.02.9-.84,1-.94.12-1.86-.11-2.8-.01-.3.03-.41-.09-.4-.39.03-.81.04-1.62.06-2.43,0-.23.18-.22.31-.2,1.05.17,2.12.06,3.18.15.55.05.43.55.51.98ZM89.98,63.39c.47.1.45-.24.46-.5.02-.44-.1-.88.03-1.31.09-.31.02-.34-.31-.39-.89-.14-1.79.07-2.67-.17-.22-.06-.36.03-.36.29,0,.61,0,1.22-.01,1.82,0,.19.03.21.24.21.88,0,1.76-.08,2.62.05Z"/>
    </g>
  </g>
</svg>